<svg version="1.1" id="Layer_1" xmlns="http://www.w3.org/2000/svg" xmlns:xlink="http://www.w3.org/1999/xlink" x="0px" y="0px"
	 width="100%" viewBox="0 0 1722 774" enable-background="new 0 0 1722 774" xml:space="preserve">
  <!--Hojitas-->
  <path fill="#05A75C" opacity="1.000000" stroke="none"
          d="
M331.984406,177.991241
	C331.678619,178.134583 331.427307,178.343475 330.850952,178.919739
	C330.087524,179.862518 329.703705,180.503479 329.319885,181.144440
	C329.319885,181.144440 329.116028,181.244339 328.729919,181.393402
	C324.320068,181.542465 320.296265,181.542465 315.502838,181.542465
	C320.827423,173.731689 325.483551,166.901505 330.139709,160.071320
	C330.449677,159.962524 330.691345,159.768570 331.184631,159.183258
	C331.632751,158.571899 331.760895,158.266724 331.889008,157.961548
	C332.140961,157.704422 332.392914,157.447296 333.040070,156.870575
	C333.675385,156.056732 333.915497,155.562485 334.155609,155.068237
	C335.066589,153.978836 335.977570,152.889450 337.269897,151.420319
	C337.819824,150.716965 337.988373,150.393372 338.156952,150.069778
	C338.499359,149.986694 338.738464,149.782593 339.238098,149.082428
	C341.402100,146.472168 343.202271,144.236938 345.002441,142.001709
	C346.899139,140.205963 348.795868,138.410217 351.172516,136.259995
	C352.852570,134.692291 354.052673,133.479050 355.252808,132.265808
	C355.252808,132.265823 355.173035,132.006195 355.472565,132.074036
	C356.000275,131.850525 356.228455,131.559158 356.456635,131.267807
	C357.204041,130.674301 357.951447,130.080780 359.149780,129.200867
	C360.130951,128.336151 360.661163,127.757843 361.191376,127.179535
	C361.191376,127.179527 361.066528,127.018044 361.371460,127.058777
	C361.872955,126.821358 362.069519,126.543198 362.266083,126.265045
	C362.266083,126.265038 362.025848,126.107498 362.414825,126.155685
	C363.176147,125.798141 363.548462,125.392403 363.920807,124.986664
	C384.125336,109.315384 407.454193,100.215599 431.651550,93.067978
	C448.094421,88.210930 464.973022,88.741898 481.738617,90.565361
	C510.891541,93.736084 539.613770,92.910645 567.565125,83.057358
	C580.577881,78.470169 593.512085,73.659286 606.464233,68.901749
	C616.354614,65.268852 624.286865,58.897430 631.696716,49.508060
	C632.454163,61.167725 631.482727,71.110039 627.356079,80.436790
	C613.553772,111.631920 590.927551,134.376465 560.734131,150.071671
	C530.214783,165.936295 497.773438,168.041733 464.444550,164.653656
	C447.561218,162.937378 430.624420,161.509705 413.851074,159.015015
	C396.430054,156.424042 379.142426,152.873093 361.874237,149.359879
	C357.355438,148.440521 354.657135,149.183319 351.879120,153.047562
	C346.937592,159.921265 341.283142,166.282440 335.533691,173.304047
	C334.964691,174.098099 334.788910,174.446091 334.613159,174.794067
	C334.325592,174.869522 334.106750,175.035507 333.600891,175.612213
	C332.824951,176.618683 332.404694,177.304962 331.984406,177.991241
z"/>
  <path fill="#09A75D" opacity="1.000000" stroke="none"
        d="
M287.925232,188.759430
	C288.640137,187.110626 288.983215,185.124130 290.127014,183.864853
	C302.746216,169.971436 315.269379,155.977753 328.314880,142.491333
	C333.125671,137.517960 335.066467,131.658554 336.876160,125.475021
	C341.325897,110.270538 346.506348,95.405937 356.664948,82.860588
	C358.648987,80.410423 360.768585,78.070030 362.933472,75.360443
	C377.425262,62.107876 393.517151,52.104809 411.973389,45.966434
	C437.291962,37.545719 462.849304,37.692005 488.844971,42.404312
	C523.071655,48.608692 557.439514,54.138901 592.425720,52.890686
	C603.371643,52.500164 614.288635,51.297482 626.421204,50.375160
	C620.847412,52.807659 616.314026,55.026142 611.611755,56.795578
	C593.733215,63.523148 576.071289,71.028206 557.787537,76.402435
	C546.494690,79.721779 534.246460,80.704498 522.386841,80.976013
	C502.764099,81.425262 483.104675,80.005226 463.468231,80.186989
	C435.054291,80.450012 407.997162,86.752121 383.449585,101.535522
	C375.945251,106.054871 369.279327,111.966263 361.765442,117.571487
	C361.083313,118.201904 360.865173,118.500992 360.647034,118.800079
	C359.542694,119.704124 358.438385,120.608162 356.857300,121.824570
	C355.173767,123.376160 353.966919,124.615364 352.760071,125.854584
	C352.760101,125.854591 352.355682,126.001541 351.905884,126.215393
	C350.359558,127.640366 349.263062,128.851486 348.166565,130.062607
	C347.895996,130.269043 347.625458,130.475479 346.923279,130.896408
	C346.337860,131.414047 346.184113,131.717194 346.030365,132.020340
	C345.432709,132.480042 344.835022,132.939743 343.829315,133.703766
	C343.256714,134.325119 343.092163,134.642136 342.927612,134.959152
	C342.927612,134.959152 342.998932,134.990311 342.670654,135.029663
	C341.890320,135.711166 341.438232,136.353333 340.986176,136.995499
	C340.986176,136.995499 341.001221,136.999985 340.703400,137.118149
	C339.928162,138.156052 339.450775,139.075790 338.973389,139.995514
	C338.973358,139.995514 338.733704,140.175476 338.464569,140.478714
	C338.057312,141.133469 337.919159,141.484985 337.781006,141.836517
	C337.781036,141.836517 337.942505,141.939331 337.625641,141.964752
	C337.188934,142.317230 337.069092,142.644287 336.949249,142.971344
	C336.623383,143.407059 336.297516,143.842789 335.624695,144.719666
	C334.173248,147.102432 333.068756,149.044037 331.964264,150.985657
	C331.677704,151.155121 331.440369,151.377228 330.872314,151.976913
	C330.283966,152.848587 330.075623,153.395279 329.867279,153.941956
	C328.966309,155.362305 328.065338,156.782669 326.684052,158.651413
	C324.167267,162.310150 322.091888,165.496597 320.102478,168.735855
	C316.039154,175.352005 312.143616,182.130585 303.547333,183.734009
	C303.547333,183.734009 303.230713,183.724411 302.743713,183.806458
	C300.689331,184.506821 299.121887,185.125137 297.554474,185.743439
	C297.204529,185.804977 296.854584,185.866501 295.883972,185.982025
	C292.817261,186.943832 290.371246,187.851624 287.925232,188.759430
z"/>
  <!--Globo Terraqueo-->
  <path fill="#EA353B" opacity="1.000000" stroke="none"
        d="
  M592.239075,479.968079
    C592.112427,482.350922 591.985779,484.733765 591.719971,487.903503
    C588.902710,506.428467 587.705994,524.545044 583.287415,541.838440
    C565.150513,612.821411 525.527039,668.996033 464.321136,709.626648
    C419.957001,739.077026 371.018707,754.407166 317.889130,756.150513
    C305.277069,756.564331 292.619110,755.578613 279.982269,755.236694
    C278.917786,755.112000 277.853302,754.987305 276.078125,754.708374
    C231.995285,749.101135 191.811768,734.866516 154.963257,711.213257
    C137.543076,700.031189 121.947800,686.647644 106.824387,672.638489
    C106.629181,672.367554 106.433975,672.096619 105.883072,671.404053
    C99.308304,663.831360 92.818169,656.896362 86.916443,649.492371
    C59.281433,614.822571 40.246773,575.891541 31.762989,532.350159
    C28.088425,513.491211 27.060816,494.116547 24.830891,474.976105
    C24.890198,474.234039 24.949503,473.492004 25.027678,471.934875
    C25.601429,462.813293 26.027325,454.495728 26.732939,446.202026
    C30.278481,404.528107 42.734379,365.563202 64.369537,329.894623
    C112.359215,250.777039 182.630051,204.774307 274.221313,192.202530
    C314.302582,186.701019 354.005219,190.458313 392.650696,202.860123
    C467.239258,226.796478 522.980591,273.475464 559.885986,342.517517
    C574.284241,369.453491 583.654480,398.166016 588.239746,428.378784
    C589.732910,438.217377 590.764526,448.126007 592.007263,458.002625
    C592.011963,459.713470 592.016724,461.424286 592.018188,464.016815
    C592.089600,469.921692 592.164368,474.944885 592.239075,479.968079
  M79.854973,574.670471
    C90.001511,598.024963 103.695267,619.073120 120.153526,637.695435
    C137.678680,627.460327 154.689911,617.525391 171.924103,607.460205
    C170.362778,603.771851 168.678070,599.814392 167.010712,595.849670
    C153.368881,563.411133 144.497650,529.777527 142.130005,494.593079
    C141.844101,490.344208 140.473648,489.327881 136.509995,489.338989
    C112.355408,489.406677 88.200218,489.249969 64.045174,489.194550
    C62.470539,489.190918 60.895405,489.406830 58.880222,489.552460
    C60.842110,519.352112 67.711540,547.258911 79.854973,574.670471
  M505.305420,627.819397
    C536.681519,587.743103 554.066345,542.339539 558.260803,491.318451
    C530.167664,491.318451 503.130798,491.318451 475.771393,491.318451
    C473.266663,532.496399 462.425720,571.184387 445.082916,608.438721
    C447.572845,609.735596 449.805450,610.805725 451.949646,612.030640
    C463.209442,618.463501 474.635376,624.632446 485.639557,631.478333
    C496.872833,638.466797 496.688171,638.763672 505.305420,627.819397
  M472.011139,424.609100
    C472.988464,431.861725 474.299255,439.091003 474.808563,446.376343
    C475.080750,450.269684 476.535553,450.935974 480.004089,450.925232
    C504.154663,450.850494 528.305847,450.974762 552.456787,451.012024
    C554.192078,451.014709 555.927551,450.833435 557.945801,450.722046
    C552.419250,396.550079 532.282166,349.467865 497.843018,309.506653
    C480.309753,319.204407 463.568237,328.391815 446.973572,337.837341
    C446.056488,338.359314 445.687195,341.278229 446.207520,342.646027
    C448.629028,349.011475 451.579834,355.173126 454.110748,361.499908
    C462.165833,381.636017 467.818939,402.468964 472.011139,424.609100
  M104.257484,328.762115
    C78.855240,364.841217 64.012306,404.766998 59.521282,449.081879
    C62.140553,449.196564 63.777100,449.321655 65.414368,449.331909
    C88.742371,449.477905 112.070419,449.621155 135.398605,449.734619
    C142.199295,449.767700 142.176544,449.721710 142.809158,443.149048
    C145.505875,415.131439 152.310440,388.105377 162.542313,361.921722
    C165.675552,353.903656 168.985382,345.954590 171.994690,338.516785
    C154.713501,328.345154 137.859131,318.424744 120.261208,308.066681
    C115.235718,314.567719 109.968353,321.381653 104.257484,328.762115
  M415.922363,581.407104
    C428.034790,552.598511 435.919281,522.780762 438.083160,490.770630
    C401.383209,490.770630 365.366425,490.770630 328.745361,490.770630
    C328.745361,520.036377 328.745361,549.366333 328.745361,578.757019
    C354.204041,580.713989 379.029388,585.075562 403.305878,592.504517
    C410.626801,594.744812 409.427490,595.858826 412.954010,588.023743
    C413.841583,586.051697 414.752380,584.090210 415.922363,581.407104
  M238.500000,489.937408
    C219.066925,489.937408 199.633850,489.937408 179.544281,489.937408
    C182.047012,526.871033 191.956268,561.057007 207.714813,594.266785
    C233.963867,585.781128 260.665009,580.783203 288.267334,578.659546
    C288.267334,548.988831 288.267334,519.748962 288.267334,489.940338
    C271.774200,489.940338 255.637100,489.940338 238.500000,489.937408
  M205.389709,356.773590
    C192.152649,386.327515 182.944031,416.952484 180.084366,449.707977
    C216.622894,449.707977 252.492996,449.707977 288.666870,449.707977
    C288.666870,422.291443 288.666870,395.224030 288.666870,367.805939
    C286.710632,367.573059 284.921631,367.353394 283.131012,367.148102
    C275.040680,366.220428 266.826599,365.891510 258.885681,364.244659
    C243.602982,361.075226 228.464417,357.203552 213.291016,353.520416
    C210.105057,352.747070 207.014114,351.493164 205.389709,356.773590
  M427.501312,400.011047
    C422.186768,385.863678 416.733429,371.765991 411.639435,357.539642
    C410.042175,353.078857 407.791656,352.908630 403.785217,354.196106
    C385.213470,360.164001 366.182129,364.094757 346.785675,366.212982
    C341.040466,366.840424 335.285522,367.378693 329.261383,367.985382
    C329.261383,395.521790 329.261383,422.575378 329.261383,450.176636
    C365.276062,450.176636 400.983093,450.176636 437.190186,450.176636
    C435.992401,433.228088 432.382568,416.906860 427.501312,400.011047
  M330.646545,612.100281
    C326.616150,612.267700 328.116821,615.396301 328.105652,617.328491
    C327.947723,644.637634 327.911224,671.947449 327.847900,699.257141
    C327.840027,702.654785 327.846863,706.052429 327.846863,710.014099
    C341.738190,699.249634 388.444580,638.833679 393.013641,624.148376
    C372.998444,617.649597 352.405701,614.207214 330.646545,612.100281
  M289.660645,261.497620
    C289.660645,253.256180 289.660645,245.014740 289.660645,235.218399
    C264.156250,262.643799 242.291245,290.819824 223.662689,322.168274
    C245.338913,328.832611 266.553436,333.117554 289.654663,334.371460
    C289.654663,310.046387 289.654663,286.271423 289.660645,261.497620
  M237.247635,646.264526
    C252.102097,668.672913 268.739441,689.656616 287.753479,710.440979
    C287.753479,676.862305 287.753479,644.700562 287.753479,611.963135
    C265.865906,613.790222 244.760483,617.507996 223.181763,624.248779
    C227.974426,631.771667 232.403442,638.723694 237.247635,646.264526
  M343.581665,253.905548
    C339.373688,249.083740 335.165710,244.261948 330.225372,238.600967
    C329.833588,241.037277 329.512787,242.115891 329.507935,243.195923
    C329.377991,272.341461 329.310699,301.487305 329.132355,330.632507
    C329.113708,333.678375 329.942139,334.860840 333.165894,334.365356
    C345.818695,332.420807 358.541534,330.896088 371.146881,328.692383
    C378.432495,327.418671 385.543427,325.145752 393.471008,323.135376
    C378.748444,298.118195 362.075165,275.798187 343.581665,253.905548
  M378.923523,233.123154
    C377.914490,232.977631 376.905426,232.832123 375.401428,232.615219
    C376.063843,233.726868 376.331573,234.339676 376.739624,234.837448
    C395.319641,257.500427 412.614441,281.070709 427.211334,306.532654
    C428.756195,309.227417 430.404083,309.266937 432.898315,307.911469
    C440.053162,304.023163 447.405762,300.490051 454.479523,296.463989
    C460.721008,292.911652 466.691803,288.883728 473.135010,284.844574
    C471.283691,283.187012 470.203979,282.160461 469.062866,281.207336
    C442.553833,259.064667 412.654633,243.236786 378.923523,233.123154
  M233.266800,242.773010
    C235.618546,239.784592 237.970291,236.796173 240.841721,233.147385
    C216.940170,236.110138 157.127487,268.485748 145.434601,284.906342
    C159.451416,292.900208 173.361389,300.833130 186.199310,308.154663
    C202.196915,285.909851 217.508347,264.619202 233.266800,242.773010
  M422.081665,650.572205
    C407.283875,671.649353 392.486084,692.726501 377.800842,713.643311
    C412.527252,703.678345 443.980164,686.824036 472.963318,661.861023
    C458.151215,653.445801 444.250946,645.548645 430.077637,637.496399
    C427.126556,642.322083 424.794525,646.135498 422.081665,650.572205
  M156.552521,671.940002
    C181.278900,690.852173 208.506790,704.681458 238.626617,713.303223
    C221.100937,688.125793 203.962906,663.505249 186.047470,637.767883
    C172.841034,645.300842 158.802734,653.308228 143.877274,661.821716
    C148.731018,665.732483 152.342239,668.642151 156.552521,671.940002
  z"/>
  <!--Simbolo Marca Registrada-->
  <path fill="#10A660" opacity="1.000000" stroke="none"
        d="
M672.080811,690.059814
	C664.560608,712.598267 643.282654,726.501587 620.186707,724.290771
	C596.934326,722.065002 578.734558,704.586365 575.841431,681.306702
	C573.273438,660.644104 581.040527,644.239624 598.290405,633.065186
	C614.932495,622.284424 632.738342,622.093506 649.811890,632.096252
	C667.448059,642.428528 675.594177,658.411377 674.185242,678.934631
	C673.937622,682.542786 672.869263,686.094604 672.080811,690.059814
M589.576050,683.547913
	C589.756653,684.188538 589.919128,684.835022 590.120605,685.468994
	C596.249878,704.757324 616.678040,715.708374 635.271362,709.676636
	C655.086975,703.248474 665.883484,682.811340 659.558960,663.701599
	C653.067383,644.087097 632.200623,633.900330 612.520142,640.738220
	C595.426636,646.677246 586.637939,662.574463 589.576050,683.547913
z"/>
  <path fill="#1AA364" opacity="1.000000" stroke="none"
        d="
M641.575928,692.468506
	C643.221619,694.534973 644.638306,696.320435 646.490417,698.654663
	C641.432983,699.458801 637.525024,700.155640 634.440063,695.250854
	C631.815247,691.077759 628.430664,687.262817 624.829102,683.877991
	C623.212708,682.358826 620.270325,682.007324 617.869507,681.789917
	C617.436401,681.750671 616.312683,684.917786 616.200500,686.649414
	C615.945190,690.590515 616.120056,694.559509 616.120056,698.840942
	C613.623596,698.840942 611.588623,698.840942 609.241821,698.840942
	C609.241821,683.674316 609.241821,668.769836 609.241821,652.687317
	C616.269165,653.124634 623.504761,652.636414 630.254211,654.219910
	C639.819702,656.464172 642.085266,669.257141 634.739807,676.372375
	C633.679138,677.399780 632.464050,678.267883 630.960083,679.506409
	C634.478455,683.801941 637.912659,687.994690 641.575928,692.468506
M628.331421,660.658142
	C624.459106,660.262024 620.586792,659.865906 616.321899,659.429626
	C616.321899,665.022400 616.321899,669.734070 616.321899,674.385376
	C623.440796,675.799622 628.235657,674.833740 630.173950,671.453125
	C632.269775,667.797852 632.460571,664.202942 628.331421,660.658142
z"/>

  <!--Interfruits Perú SAC-->
  <path fill="#2E2E25" opacity="1.000000" stroke="none"
    d="
  M1489.955078,622.841797
    C1470.811279,622.847473 1452.158325,622.954102 1433.508423,622.767334
    C1430.086914,622.733093 1428.585205,623.779480 1427.492188,626.976440
    C1424.220337,636.544617 1420.621704,646.002258 1417.083374,655.477905
    C1414.322510,662.872192 1411.195190,664.985413 1403.230225,665.003540
    C1395.944702,665.020203 1388.659180,665.007141 1380.884399,665.007141
    C1388.020874,646.829102 1394.991577,629.083435 1401.954590,611.334839
    C1416.752075,573.617310 1431.596802,535.918152 1446.262085,498.149231
    C1447.742798,494.335846 1449.587769,492.824249 1453.808838,493.045502
    C1461.448364,493.445923 1469.128540,493.316284 1476.781982,493.084320
    C1479.930908,492.988861 1481.400024,493.944336 1482.576904,496.967957
    C1499.982422,541.680786 1517.534790,586.336365 1535.057251,631.003601
    C1539.412231,642.105164 1543.784790,653.199951 1548.364258,664.844788
    C1539.071167,664.844788 1530.328003,665.134949 1521.616699,664.733948
    C1516.538452,664.500183 1513.982178,660.582703 1512.365723,656.086365
    C1509.108154,647.024963 1505.518188,638.070129 1502.633545,628.892761
    C1501.154907,624.188049 1499.026855,621.791687 1493.937378,622.809937
    C1492.816650,623.034119 1491.612671,622.842163 1489.955078,622.841797
  M1467.500000,600.176941
    C1475.414062,600.176941 1483.328125,600.176941 1491.915161,600.176941
    C1482.580933,574.380493 1473.511963,549.317200 1464.638062,524.792969
    C1455.757324,549.449219 1446.723755,574.529663 1437.486084,600.176941
    C1447.578857,600.176941 1457.039429,600.176941 1467.500000,600.176941
  z"/>
  <path fill="#2D2D24" opacity="1.000000" stroke="none"
    d="
  M840.912231,528.241821
    C847.041199,551.166504 845.163391,572.120483 827.090637,588.825012
    C814.648438,600.325195 798.877380,603.931458 782.374878,604.437561
    C772.936829,604.727051 763.482727,604.489990 753.597107,604.489990
    C753.597107,624.790771 753.597107,644.540466 753.597107,664.651001
    C742.781738,664.651001 732.403625,664.651001 721.813477,664.651001
    C721.813477,607.635376 721.813477,550.592041 721.813477,493.153809
    C738.430420,493.153809 754.745911,492.683838 771.019043,493.311493
    C782.750488,493.763977 794.703491,494.511353 806.059875,497.216614
    C822.593445,501.155212 834.946350,511.161530 840.912231,528.241821
  M793.007996,520.279907
    C780.002808,516.440430 766.767273,518.582886 753.806152,517.914978
    C753.806152,538.943665 753.806152,559.122681 753.806152,579.499146
    C761.565674,579.499146 768.876099,579.551819 776.185181,579.474609
    C779.342102,579.441284 782.510986,579.275818 785.649170,578.936707
    C800.442993,577.338074 810.022278,568.073425 811.725281,553.343079
    C813.286865,539.835205 809.331848,525.648682 793.007996,520.279907
  z"/>
  <path fill="#2E2E25" opacity="1.000000" stroke="none"
    d="
  M1552.117676,558.197266
    C1556.035034,541.771484 1563.004517,527.405518 1574.878662,515.778137
    C1592.801392,498.227661 1614.909668,491.595551 1639.427002,491.650757
    C1657.905029,491.692383 1674.899658,496.496063 1689.660034,508.011414
    C1691.857788,509.726105 1693.884766,511.659607 1696.210327,513.682800
    C1692.369141,518.969360 1688.908325,524.040588 1685.119141,528.853333
    C1681.881714,532.965210 1678.574463,532.761292 1673.197876,529.914429
    C1666.348877,526.287903 1659.486694,521.779114 1652.091675,520.244263
    C1615.347778,512.617920 1585.900146,533.118225 1583.061157,572.887634
    C1582.102783,586.315186 1583.575317,599.439270 1589.805786,611.741882
    C1599.340332,630.568848 1614.840698,639.663269 1635.628784,639.731995
    C1649.420410,639.777649 1662.306641,636.659973 1672.957764,626.970093
    C1676.817627,623.458557 1679.918945,623.795776 1683.400879,627.418518
    C1687.312012,631.487732 1691.060669,635.713013 1695.080688,640.088806
    C1686.616211,650.886230 1675.975952,658.225525 1663.170288,662.250305
    C1638.411133,670.031982 1613.948608,668.879211 1591.047607,656.566956
    C1566.604736,643.425842 1554.328003,621.298584 1551.352173,594.378906
    C1550.053101,582.627625 1551.729370,570.547546 1552.117676,558.197266
  z"/>
  <path fill="#2E2E25" opacity="1.000000" stroke="none"
    d="
  M1305.591919,520.254395
    C1300.496216,523.120605 1296.522827,526.505859 1294.973633,532.039917
    C1291.813599,543.327454 1295.772827,551.563293 1307.781616,556.629944
    C1317.242920,560.621765 1327.102783,563.662781 1336.750244,567.221741
    C1345.998779,570.633362 1355.083008,574.499939 1361.934814,581.903076
    C1375.561890,596.626587 1375.667847,613.912537 1369.433228,631.367737
    C1361.470947,653.659851 1343.986450,664.542908 1321.179932,666.544861
    C1297.602173,668.614685 1276.472534,661.882080 1258.702393,645.776001
    C1258.224487,645.342834 1257.875488,644.767578 1257.241943,643.979553
    C1260.055176,639.320129 1262.739868,634.570923 1265.719971,630.014893
    C1269.380249,624.418823 1273.517578,623.821899 1279.366821,627.078857
    C1287.156006,631.416199 1294.739502,636.851074 1303.141602,639.183899
    C1314.853760,642.435730 1327.149658,642.148193 1336.797363,632.676453
    C1346.723511,622.931458 1345.058594,605.881409 1332.996826,599.224915
    C1325.545654,595.112854 1316.919800,593.177246 1308.957275,589.931152
    C1299.770142,586.185791 1289.982788,583.229919 1281.770508,577.904236
    C1256.700684,561.646606 1258.072632,519.741943 1283.916138,502.205597
    C1304.625366,488.153198 1326.918457,488.957794 1349.333252,497.009491
    C1356.677612,499.647675 1363.247437,504.441986 1370.511597,508.437439
    C1367.149536,514.839783 1364.571655,520.203857 1361.574097,525.322266
    C1358.863281,529.950928 1354.847900,530.136963 1348.980591,527.173706
    C1342.797241,524.050964 1336.558594,520.726135 1329.959961,518.817383
    C1322.046265,516.528198 1313.823120,517.225586 1305.591919,520.254395
  z"/>
  <path fill="#303027" opacity="1.000000" stroke="none"
    d="
  M825.457520,268.786987
    C840.212280,256.627594 856.346191,252.859802 874.229126,259.102753
    C886.526672,263.395905 893.794739,272.682983 896.901001,284.997620
    C898.471985,291.225830 899.383118,297.779449 899.454590,304.198639
    C899.727295,328.685638 899.538574,353.177765 899.511292,377.667999
    C899.510559,378.304138 899.384460,378.940186 899.294067,379.790466
    C889.684570,379.790466 880.244629,379.790466 870.081970,379.790466
    C870.081970,378.052368 870.081726,376.299255 870.081970,374.546143
    C870.085327,350.888885 870.087952,327.231628 870.092773,303.574371
    C870.094116,296.986084 869.447632,290.570190 864.844788,285.324066
    C858.428040,278.010620 845.389893,277.079315 834.836121,282.707611
    C826.457336,287.175934 822.014832,292.641724 822.476990,303.308685
    C823.500122,326.921600 822.794312,350.609436 822.793579,374.266693
    C822.793518,376.055206 822.793579,377.843750 822.793579,379.817596
    C812.771790,379.817596 803.328552,379.817596 793.546387,379.817596
    C793.546387,339.382111 793.546387,299.009308 793.546387,258.243195
    C799.873474,258.243195 805.991943,258.104858 812.100281,258.293640
    C815.936951,258.412201 818.068665,260.929443 818.971252,264.488983
    C819.574768,266.868958 820.008850,269.291901 820.701904,272.558990
    C822.483704,271.130432 823.810181,270.066864 825.457520,268.786987
  z"/>
  <path fill="#2E2E25" opacity="1.000000" stroke="none"
    d="
  M951.352539,658.361938
    C926.128296,669.952637 901.513611,671.382202 878.258667,654.833923
    C865.241577,645.570984 859.060913,631.699341 856.652527,616.240295
    C853.888123,598.496277 855.296448,581.288513 865.704041,565.923828
    C878.403748,547.175476 896.814209,539.984070 918.726685,541.519470
    C950.694397,543.759583 967.360596,567.300171 966.749329,598.436218
    C966.594788,606.307739 964.766113,607.845093 956.703247,607.846802
    C934.712036,607.851624 912.720825,607.843933 890.729614,607.841248
    C888.924683,607.841003 887.119812,607.841187 885.322754,607.841187
    C885.051758,634.939087 904.242676,648.912048 929.703125,642.442078
    C934.606201,641.196167 939.197021,638.514465 943.750549,636.146484
    C951.330811,632.204590 954.170532,632.638611 959.518738,639.198242
    C961.409241,641.516846 963.291504,643.842102 966.018677,647.200073
    C961.200134,650.882324 956.432861,654.525391 951.352539,658.361938
  M925.496216,590.001892
    C930.283936,590.001892 935.071716,590.001892 939.825989,590.001892
    C940.814636,574.089355 931.164368,563.216431 915.597290,562.247437
    C899.456482,561.242737 887.094604,572.567688 885.706909,590.001953
    C898.655823,590.001953 911.576416,590.001953 925.496216,590.001892
  z"/>
  <path fill="#2E2E25" opacity="1.000000" stroke="none"
    d="
  M1121.661499,361.229279
    C1116.008667,369.800018 1107.638550,374.689667 1098.423096,377.676727
    C1082.939697,382.695374 1067.076172,383.768799 1051.322266,378.672882
    C1037.030029,374.049744 1026.257568,364.909729 1019.689880,351.406372
    C1011.452637,334.470581 1009.537781,316.532013 1014.490540,298.408417
    C1022.839783,267.856018 1051.210205,251.028229 1082.453613,257.383636
    C1106.259155,262.226044 1121.993652,280.725769 1123.018311,305.114716
    C1123.144043,308.109222 1123.247070,311.113251 1123.155396,314.106567
    C1122.932495,321.391388 1121.475952,322.834473 1114.194214,322.846680
    C1092.536011,322.882935 1070.877930,322.856476 1049.219727,322.854584
    C1046.751709,322.854370 1044.283691,322.854553 1041.819702,322.854553
    C1041.879395,341.160522 1050.860962,354.567139 1065.266846,357.879272
    C1075.322754,360.191284 1085.230469,359.423615 1094.358276,354.424622
    C1113.381226,344.006561 1110.754517,348.353424 1121.206055,360.515869
    C1121.314331,360.641907 1121.405884,360.782257 1121.661499,361.229279
  M1095.134399,304.991913
    C1095.722534,304.255402 1096.867554,303.473999 1096.812500,302.789337
    C1096.269653,296.055206 1094.706421,289.662628 1089.686401,284.667114
    C1080.876587,275.900452 1070.164795,275.545288 1059.532227,279.348450
    C1048.167847,283.413330 1043.976685,293.422150 1041.920288,304.997803
    C1059.594116,304.997803 1076.897827,304.997803 1095.134399,304.991913
  z"/>
  <path fill="#2D2D24" opacity="1.000000" stroke="none"
    d="
  M1191.177124,648.997986
    C1191.177124,654.473999 1191.177124,659.450623 1191.177124,664.947266
    C1184.679443,664.947266 1178.347900,665.439392 1172.166504,664.690735
    C1169.882324,664.414124 1167.348511,661.563416 1166.025146,659.257385
    C1164.619385,656.807739 1164.515015,653.611389 1164.095825,651.822754
    C1156.571289,656.062500 1149.413086,661.610840 1141.305908,664.342224
    C1125.402588,669.700195 1109.889648,668.037598 1097.334595,655.608337
    C1090.011353,648.358521 1086.173706,638.870178 1085.803223,628.655212
    C1085.127686,610.026611 1085.218140,591.369202 1085.058960,572.723206
    C1084.976685,563.090332 1085.044434,553.456299 1085.044434,543.486755
    C1094.831909,543.486755 1104.251343,543.486755 1114.420776,543.486755
    C1114.420776,545.185974 1114.420654,546.946106 1114.420898,548.706238
    C1114.424438,571.691406 1114.307251,594.677795 1114.527466,617.660889
    C1114.574341,622.569458 1115.317383,627.618408 1116.674805,632.333435
    C1118.802490,639.724487 1124.595947,643.131531 1131.976440,643.880188
    C1143.700684,645.069397 1152.952881,639.931824 1160.860840,631.944946
    C1161.884521,630.910950 1161.917358,628.610291 1161.921631,626.895142
    C1161.985962,600.912048 1161.968872,574.928711 1161.970825,548.945435
    C1161.970947,547.286133 1161.970825,545.626770 1161.970825,543.554565
    C1171.537598,543.554565 1180.929688,543.554565 1191.177124,543.554565
    C1191.177124,578.410095 1191.177124,613.454346 1191.177124,648.997986
  z"/>
  <path fill="#2D2D24" opacity="1.000000" stroke="none"
    d="
  M1326.372314,258.212158
    C1335.794189,258.162201 1344.745850,258.162201 1354.187134,258.162201
    C1354.187134,260.456482 1354.186646,262.239807 1354.187256,264.023102
    C1354.194458,287.007263 1354.099121,309.992340 1354.295532,332.974884
    C1354.334961,337.569550 1354.935303,342.319794 1356.247925,346.707855
    C1358.560913,354.440399 1364.522827,358.471832 1372.605591,358.965363
    C1383.915649,359.655853 1392.973511,354.965118 1400.539795,347.077911
    C1401.665039,345.905090 1401.821045,343.463196 1401.826416,341.606689
    C1401.900635,315.957855 1401.869873,290.308746 1401.864990,264.659729
    C1401.864624,262.685425 1401.864990,260.711151 1401.864990,258.436279
    C1411.629150,258.436279 1421.025024,258.436279 1430.760010,258.436279
    C1430.760010,298.851135 1430.760010,339.204437 1430.760010,379.929260
    C1424.338989,379.929260 1417.994507,380.427612 1411.805420,379.665253
    C1409.568970,379.389771 1407.156250,376.406921 1405.824829,374.085388
    C1404.489624,371.757172 1404.402466,368.713074 1403.580566,365.174591
    C1401.672119,366.925018 1400.148193,368.338684 1398.607300,369.733643
    C1383.182617,383.697266 1357.995850,386.140167 1342.173096,374.951080
    C1331.184204,367.180237 1325.966553,355.649719 1325.582031,342.852386
    C1324.752197,315.230164 1325.126831,287.571594 1325.054077,259.927795
    C1325.052612,259.373291 1325.607056,258.817383 1326.372314,258.212158
  z"/>
  <path fill="#2F3026" opacity="1.000000" stroke="none"
    d="
  M1134.836792,273.745850
    C1134.465088,268.898987 1134.210571,264.443665 1133.922363,259.400360
    C1140.152344,259.400360 1145.901245,259.400360 1152.297974,259.400360
    C1152.007324,240.314148 1153.738159,222.326935 1172.145508,211.732239
    C1185.117554,204.265961 1198.903931,203.760437 1213.007080,207.373795
    C1213.007080,212.433884 1213.383179,217.275620 1212.808105,222.001587
    C1212.599731,223.714310 1210.384033,225.923431 1208.610352,226.537506
    C1205.691162,227.548233 1202.393677,227.538391 1199.242310,227.793564
    C1188.393188,228.671921 1182.571533,233.908752 1181.264526,244.794769
    C1180.717529,249.350204 1181.173462,254.026047 1181.173462,259.144104
    C1191.541016,259.144104 1201.775024,259.144104 1212.291992,259.144104
    C1212.291992,266.236664 1212.291992,272.833252 1212.291992,279.974121
    C1202.329590,279.974121 1192.442139,279.974121 1182.113281,279.974121
    C1182.113281,313.411743 1182.113281,346.314514 1182.113281,379.620483
    C1172.113159,379.620483 1162.549683,379.620483 1152.583374,379.620483
    C1152.583374,346.833832 1152.583374,313.903900 1152.583374,280.443817
    C1148.476318,279.662384 1144.542236,279.253693 1140.850098,278.082062
    C1138.685425,277.395172 1136.906372,275.492981 1134.836792,273.745850
  z"/>
  <path fill="#2E2E26" opacity="1.000000" stroke="none"
    d="
  M1668.777832,257.055969
    C1679.793701,259.332550 1689.300293,263.685547 1697.532715,271.326752
    C1695.223267,275.181213 1693.236572,279.006805 1690.765625,282.488617
    C1687.856812,286.587494 1683.788574,285.823151 1680.056641,283.882751
    C1672.395752,279.899445 1664.510864,277.130646 1655.710693,277.963257
    C1654.716431,278.057343 1653.704712,278.038086 1652.725098,278.208679
    C1644.929810,279.566284 1640.541016,283.279572 1639.637573,289.232147
    C1638.786133,294.842407 1641.185669,298.710419 1649.014893,302.237579
    C1654.895752,304.887024 1661.259766,306.441559 1667.276855,308.817505
    C1673.279663,311.187897 1679.456909,313.404175 1684.969604,316.678040
    C1707.199585,329.879517 1700.357178,361.350861 1683.431763,372.942139
    C1663.735352,386.431305 1627.104736,384.275513 1609.448975,368.077271
    C1609.093628,367.751221 1608.862427,367.290009 1608.341064,366.572144
    C1610.410156,363.154266 1612.399536,359.554504 1614.690552,356.158234
    C1617.955566,351.318207 1621.961426,350.368896 1627.205566,353.037048
    C1630.019653,354.468811 1632.628418,356.338593 1635.511475,357.593536
    C1645.156006,361.791443 1655.019287,363.520172 1664.729248,358.034882
    C1673.568604,353.041382 1674.097778,342.174377 1665.368652,337.099762
    C1659.282715,333.561768 1652.228760,331.700836 1645.637207,329.017303
    C1639.500488,326.518921 1633.184937,324.343292 1627.328735,321.294342
    C1607.170166,310.799133 1608.456177,283.699097 1620.019287,270.819824
    C1631.611938,257.907440 1646.773071,255.784256 1662.882935,256.452148
    C1664.708862,256.527802 1666.525635,256.824738 1668.777832,257.055969
  z"/>
  <path fill="#2F2F26" opacity="1.000000" stroke="none"
    d="
  M935.195923,281.284607
    C931.404114,280.608215 927.796814,280.232910 924.185425,280.187347
    C919.663818,280.130310 917.387756,277.899292 917.238525,273.510468
    C917.114868,269.871918 917.213196,266.225830 917.213196,262.347839
    C923.855225,261.182220 930.188477,260.070831 936.846436,258.902435
    C938.818604,248.482727 940.913147,238.092850 942.704468,227.650940
    C943.535095,222.809204 946.057617,220.780609 950.875610,220.967072
    C955.344543,221.140015 959.825378,221.003937 964.723450,221.003937
    C964.723450,233.665131 964.723450,246.070816 964.723450,259.006409
    C975.522949,259.006409 985.916321,259.006409 996.628906,259.006409
    C996.628906,266.244507 996.628906,272.952423 996.628906,280.031036
    C986.219727,280.031036 975.961609,280.031036 965.360352,280.031036
    C965.187256,281.607117 964.931580,282.860870 964.929565,284.115021
    C964.897522,304.432373 964.848083,324.749878 964.909363,345.067047
    C964.945312,356.988647 972.401001,361.589264 983.101013,356.007050
    C987.677368,353.619507 990.439331,354.448212 992.847717,358.708221
    C995.123596,362.734009 997.626282,366.631592 1000.000061,370.537689
    C985.976074,383.692932 959.438416,385.801575 946.391602,374.971069
    C937.310425,367.432495 935.513489,357.102478 935.467102,346.179626
    C935.375854,324.697357 935.401428,303.214569 935.195923,281.284607
  z"/>
  <path fill="#2D2D24" opacity="1.000000" stroke="none"
    d="
  M1595.068237,364.982483
    C1596.276611,367.007019 1597.314941,368.703888 1598.563232,370.743713
    C1593.120850,375.643005 1586.839600,378.683014 1579.780640,380.283264
    C1570.694580,382.343140 1561.538330,382.942383 1552.746094,379.491302
    C1538.918701,374.063843 1534.178711,362.617401 1534.048462,348.799652
    C1533.850586,327.804108 1533.974854,306.805511 1533.962524,285.808228
    C1533.961670,284.158295 1533.962402,282.508362 1533.962402,280.162048
    C1530.120117,280.162048 1526.518311,280.246033 1522.921997,280.142120
    C1517.709717,279.991547 1516.032104,278.328796 1515.907349,273.243408
    C1515.821777,269.755951 1515.890991,266.264709 1515.890991,262.285706
    C1521.143188,261.404480 1526.304077,260.463287 1531.491211,259.698669
    C1534.252441,259.291656 1535.680664,258.341187 1536.152222,255.149033
    C1537.510986,245.950821 1539.449463,236.839218 1541.100708,227.682877
    C1541.937744,223.041565 1544.431519,220.727280 1549.334229,220.954346
    C1553.789673,221.160706 1558.262451,220.997986 1563.175049,220.997986
    C1563.175049,233.740707 1563.175049,246.147430 1563.175049,259.116150
    C1574.012817,259.116150 1584.411255,259.116150 1595.029053,259.116150
    C1595.029053,266.288269 1595.029053,272.895630 1595.029053,280.043243
    C1584.666748,280.043243 1574.265137,280.043243 1563.580811,280.043243
    C1563.421875,281.820587 1563.209961,283.092773 1563.208862,284.365143
    C1563.192749,304.195953 1563.181030,324.026825 1563.216553,343.857605
    C1563.240112,357.024780 1570.570068,361.633057 1582.391724,355.671906
    C1586.200928,353.751068 1588.643921,354.418121 1590.723511,357.848267
    C1592.103271,360.124237 1593.505859,362.386444 1595.068237,364.982483
  z"/>
  <path fill="#2F2F25" opacity="1.000000" stroke="none"
    d="
  M741.991516,380.021454
    C735.879028,380.021454 730.263855,380.021454 724.460571,380.021454
    C724.460571,322.621460 724.460571,265.739288 724.460571,208.503372
    C735.024658,208.503372 745.417419,208.503372 756.104187,208.503372
    C756.104187,265.585052 756.104187,322.640167 756.104187,380.021454
    C751.440735,380.021454 746.964783,380.021454 741.991516,380.021454
  z"/>
  <path fill="#303027" opacity="1.000000" stroke="none"
    d="
  M1259.916260,304.655487
    C1259.885498,329.883484 1259.885498,354.674957 1259.885498,379.748871
    C1249.945435,379.748871 1240.386353,379.748871 1230.596802,379.748871
    C1230.596802,339.274170 1230.596802,299.024841 1230.596802,258.500305
    C1237.085938,258.500305 1243.346069,258.396576 1249.600708,258.538208
    C1253.513428,258.626801 1255.593506,260.915527 1256.098511,264.782684
    C1256.701904,269.402069 1257.415039,274.007141 1258.144043,279.057678
    C1261.682983,274.839294 1264.780273,270.621765 1268.408691,266.925537
    C1277.469971,257.694946 1288.454224,254.152374 1301.205688,257.003815
    C1307.511353,258.413910 1308.053711,259.382812 1307.072998,265.638428
    C1306.326660,270.399445 1305.609009,275.167938 1304.713013,279.901733
    C1303.629150,285.629303 1302.337280,286.405518 1296.469849,285.278412
    C1278.444214,281.815796 1267.076172,287.711212 1259.916260,304.655487
  z"/>
  <path fill="#2D2E24" opacity="1.000000" stroke="none"
    d="
  M1024.745239,580.851318
    C1020.549988,585.869568 1019.791077,591.348267 1019.856934,597.400391
    C1020.099548,619.695251 1019.953247,641.994324 1019.953247,664.650574
    C1010.255981,664.650574 1000.709045,664.650574 990.887024,664.650574
    C990.887024,624.326294 990.887024,583.974731 990.887024,543.632507
    C997.580872,543.632507 1004.017517,543.528259 1010.448486,543.676025
    C1013.712524,543.750977 1015.572021,545.734985 1016.048767,548.978027
    C1016.768677,553.875488 1017.497375,558.771729 1018.283813,564.083130
    C1021.826599,559.847229 1024.935425,555.639893 1028.541382,551.913696
    C1038.189819,541.943665 1052.892334,538.451904 1064.157837,542.890991
    C1067.365112,544.154724 1068.471313,545.687866 1067.606201,549.217773
    C1066.383789,554.204407 1065.759277,559.340027 1064.934326,564.420898
    C1063.980347,570.297852 1062.467285,571.468567 1056.602783,570.245728
    C1044.054077,567.629395 1033.115479,569.767151 1024.745239,580.851318
  z"/>
  <path fill="#313128" opacity="1.000000" stroke="none"
    d="
  M1493.838135,327.000061
    C1493.838135,344.779236 1493.838135,362.058411 1493.838135,379.681854
    C1483.941162,379.681854 1474.392700,379.681854 1464.547607,379.681854
    C1464.547607,339.352203 1464.547607,299.021881 1464.547607,258.405090
    C1474.154785,258.405090 1483.571289,258.405090 1493.838135,258.405090
    C1493.838135,281.086761 1493.838135,303.793396 1493.838135,327.000061
  z"/>
  <path fill="#2E2F26" opacity="1.000000" stroke="none"
    d="
  M1479.017334,204.044281
    C1495.712158,205.082993 1501.388184,220.596664 1496.088013,230.529785
    C1491.780396,238.602371 1482.892456,242.734497 1474.322266,240.429611
    C1465.732544,238.119476 1460.135742,230.033005 1460.771973,220.851044
    C1461.413940,211.583344 1467.847900,205.516891 1479.017334,204.044281
  z"/>

</svg>
