<svg id="Layer_1" xmlns="http://www.w3.org/2000/svg" x="0px" y="0px"
	 width="100%" viewBox="0 0 1920 1080" preserveAspectRatio="xMidYMid meet">
  <g fill="#000000" stroke="none">
    <!--Globo-->
    <path fill="#ED3539" opacity="1.000000" stroke="none"
          d="
M389.985107,280.979736
	C397.682678,281.035980 405.380249,281.092194 413.712219,281.220612
	C414.908447,281.236816 415.470337,281.180817 416.032196,281.124817
	C426.539978,282.413910 437.044006,283.734344 447.556305,284.985352
	C466.824646,287.278320 485.024872,293.424683 503.247131,299.768158
	C525.330017,307.455566 544.950745,319.596436 564.351990,332.176483
	C572.563354,337.500854 580.569824,343.250580 588.072083,349.521576
	C593.283081,353.877350 597.408691,359.515656 602.139526,364.466003
	C607.411987,369.983093 613.100525,375.127472 618.089294,380.883606
	C622.817993,386.339569 626.684143,392.533966 631.267456,398.126740
	C640.980408,409.978882 647.334229,423.862000 655.029907,436.923157
	C662.900208,450.280579 667.210205,465.150696 671.938416,479.783600
	C675.169189,489.782135 678.206604,499.880615 680.560791,510.111481
	C682.076538,516.698853 682.177612,523.609436 682.948364,530.371094
	C683.935913,539.035400 685.420288,547.674194 685.822449,556.364258
	C686.149414,563.429871 685.445862,570.578918 684.754700,577.647522
	C683.710754,588.323608 682.452454,598.985779 680.975586,609.610840
	C678.336121,628.600891 673.224060,646.977539 666.395996,664.864685
	C656.576477,690.588562 643.415100,714.497925 626.597351,736.313904
	C612.262207,754.909546 595.934509,771.523987 577.511719,786.195435
	C560.098938,800.062561 541.324036,811.587463 521.284851,821.068359
	C502.810638,829.808960 483.550018,836.504761 463.539490,840.739075
	C453.380920,842.888672 443.094940,844.756958 432.770264,845.721863
	C419.013947,847.007629 405.169220,847.649048 391.351868,847.854614
	C384.197723,847.961060 377.012238,846.604431 369.856506,845.774353
	C362.623199,844.935181 355.348694,844.257629 348.197845,842.937195
	C324.857300,838.627136 302.417877,831.261230 280.971680,821.204346
	C260.620697,811.661133 241.234390,800.284912 224.198547,785.487122
	C212.562454,775.379700 201.098755,764.958679 190.545135,753.748596
	C176.487091,738.816101 164.680161,722.088257 154.691345,704.078491
	C145.457687,687.430237 137.188889,670.347107 131.804352,652.097778
	C127.952644,639.043579 125.401192,625.608093 122.189590,612.362183
	C116.771141,590.014221 118.065445,567.237488 118.271713,544.597900
	C118.356743,535.265076 120.508781,525.908752 122.170677,516.643860
	C123.982765,506.541748 125.612732,496.318268 128.599487,486.537781
	C132.408264,474.065552 137.057495,461.798828 142.127869,449.773865
	C152.150665,426.003845 165.158661,403.896210 182.402359,384.627563
	C193.988754,371.680573 205.843552,358.832886 218.747971,347.243195
	C233.789734,333.733887 250.987152,323.014709 268.911682,313.499878
	C290.237183,302.179626 312.827362,294.188751 336.078949,288.284821
	C348.537384,285.121429 361.541992,284.076019 374.323517,282.237518
	C378.249390,281.672821 382.252777,281.647156 386.825317,281.387115
	C388.281677,281.259644 389.133392,281.119690 389.985107,280.979736
M469.043549,323.586151
	C468.791748,323.594940 468.539917,323.603760 468.288116,323.612579
	C468.536560,323.731537 468.784973,323.850494 468.917358,324.671265
	C488.466522,348.618347 506.674194,373.521606 522.519958,401.182770
	C537.458801,392.730103 551.819275,384.604645 566.681274,376.195374
	C543.747986,356.301453 519.267334,341.439880 492.141144,331.075439
	C484.615387,328.200012 476.694275,326.359192 469.043549,323.586151
M152.765182,590.790527
	C158.523163,643.280640 178.955215,689.293762 212.981613,728.769165
	C230.622406,718.489929 247.769516,708.498352 265.070435,698.417175
	C248.066177,661.251282 237.038635,622.286316 234.673996,580.669739
	C206.961441,580.669739 179.600479,580.669739 151.865570,580.669739
	C152.147400,583.952576 152.402328,586.922119 152.765182,590.790527
M546.666687,703.825928
	C560.988464,712.152344 575.310303,720.478760 589.979736,729.007202
	C626.173279,687.046265 646.616943,638.246765 651.311096,582.287231
	C623.339233,582.287231 596.154053,582.287231 568.775146,582.287231
	C566.290344,623.590332 555.338806,662.371094 537.996338,699.573364
	C540.955566,700.996948 543.493286,702.217773 546.666687,703.825928
M562.747375,503.857269
	C564.786377,516.433350 566.825439,529.009460 568.891113,541.749817
	C596.162231,541.749817 623.399719,541.749817 650.986267,541.749817
	C645.436096,487.783569 625.371887,440.526764 590.599243,400.215668
	C572.668213,410.596252 555.349304,420.622498 538.259644,430.516022
	C542.841980,442.335052 547.907410,454.090240 551.947266,466.187897
	C555.991821,478.299500 559.011841,490.753235 562.747375,503.857269
M195.539764,540.610291
	C208.632019,540.610291 221.724258,540.610291 235.092575,540.610291
	C238.328003,501.292633 249.121780,464.473328 265.271545,429.630371
	C247.903534,419.420044 230.927094,409.439941 213.431564,399.154633
	C178.606583,439.372955 158.101791,486.223297 152.395889,540.608459
	C166.987259,540.608459 180.771576,540.608459 195.539764,540.610291
M421.360718,616.508179
	C421.360718,634.260681 421.360718,652.013184 421.360718,669.185913
	C435.630463,671.216064 449.397400,672.633057 462.931549,675.252808
	C476.401978,677.860168 489.638641,681.675171 502.945282,684.952576
	C516.945557,660.200317 533.045471,599.979309 530.361633,581.668945
	C494.374847,581.668945 458.305695,581.668945 421.366882,581.668945
	C421.366882,592.936768 421.366882,604.224731 421.360718,616.508179
M290.501038,580.815125
	C284.600037,580.815125 278.699036,580.815125 272.485046,580.815125
	C275.067383,617.968506 285.032166,652.177002 300.661957,685.273987
	C326.957520,676.805969 353.631561,671.724976 381.260010,669.752075
	C381.260010,640.027832 381.260010,610.661621 381.260010,580.817139
	C351.104919,580.817139 321.302765,580.817139 290.501038,580.815125
M313.500000,540.962097
	C336.104584,540.962097 358.709198,540.962097 381.655151,540.962097
	C381.655151,513.394470 381.655151,486.192841 381.655151,458.645782
	C353.954193,457.065002 327.214813,451.366577 300.760620,442.960815
	C285.928406,474.199524 276.178802,506.329132 272.996155,540.962036
	C286.574127,540.962036 299.537079,540.962036 313.500000,540.962097
M519.471252,541.716919
	C522.934143,541.716919 526.397095,541.716919 530.447144,541.716919
	C527.075684,507.029205 517.129944,474.896851 502.260406,443.680908
	C476.167572,452.007538 449.658264,457.183899 422.245422,458.794495
	C422.245422,486.465332 422.245422,513.685669 422.245422,541.705261
	C454.546387,541.705261 486.512268,541.705261 519.471252,541.716919
M352.566132,421.943695
	C362.221985,423.219147 371.877838,424.494629 382.202454,425.858429
	C382.202454,392.406219 382.202454,359.923645 382.202454,326.623688
	C357.349060,353.662537 335.165405,381.780823 316.375732,413.717712
	C328.761017,416.545715 340.240204,419.166840 352.566132,421.943695
M420.853271,796.106689
	C420.853271,797.786926 420.853271,799.467102 420.853271,802.248535
	C446.204010,774.753662 468.435852,746.722839 486.948975,715.366150
	C465.284393,708.573792 443.667267,704.682373 420.854767,702.933105
	C420.854767,734.036743 420.854767,764.618530 420.853271,796.106689
M377.497681,798.035156
	C378.397491,798.896057 379.297333,799.757019 380.785278,801.180603
	C380.785278,767.999207 380.785278,735.663635 380.785278,702.950073
	C358.834076,704.865112 337.550842,708.402832 316.440460,715.223328
	C333.933807,745.188538 354.525513,772.041992 377.497681,798.035156
M436.122955,344.368591
	C432.004761,339.686890 427.886536,335.005219 423.768341,330.323517
	C423.414398,330.487671 423.060486,330.651794 422.706543,330.815948
	C422.706543,362.303223 422.706543,393.790527 422.706543,425.564270
	C444.224731,424.027405 465.226501,420.465942 486.259338,413.875183
	C471.663147,389.014038 454.813324,366.469025 436.122955,344.368591
M243.728592,378.790375
	C255.919083,385.803711 268.109589,392.817047 279.323639,399.268646
	C297.592987,373.454956 315.186584,348.596069 332.781464,323.735352
	C297.930603,333.671082 266.468903,350.572845 238.270844,374.698975
	C240.252670,376.192841 241.693436,377.278900 243.728592,378.790375
M488.199768,780.696045
	C482.246277,788.294312 476.292755,795.892578 470.339264,803.490784
	C506.159180,794.401062 537.350647,777.400208 565.960388,752.900024
	C551.320801,744.566101 537.267517,736.565918 523.883545,728.946777
	C511.633911,746.743347 500.140930,763.440674 488.199768,780.696045
M314.709076,780.785095
	C303.169403,763.729065 291.629730,746.673035 279.402161,728.600220
	C265.852081,736.315735 251.727127,744.358521 237.233047,752.611511
	C260.060150,774.257019 317.517944,804.843323 332.239410,803.464722
	C326.501556,796.005615 320.848480,788.656677 314.709076,780.785095
M469.595062,804.705933
	C469.703278,804.638062 469.811523,804.570129 469.919739,804.502197
	C469.839447,804.402893 469.769958,804.238159 469.675873,804.222656
	C469.581146,804.207092 469.462006,804.339905 469.595062,804.705933
z"/>
    <!--Hojitas-->
    <path fill="#02A95A" opacity="1.000000" stroke="none"
          d="
M555.993530,256.162140
	C554.241882,255.803864 552.500977,255.207809 550.736694,255.127655
	C542.195801,254.739716 533.644348,254.575394 525.106079,254.143982
	C522.265869,254.000488 519.442383,253.360672 516.631042,252.840775
	C497.055389,249.220596 477.480011,245.598724 457.919556,241.897980
	C455.592163,241.457626 453.392090,240.276779 451.061401,239.950531
	C449.906555,239.788879 448.161682,240.430466 447.410889,241.321381
	C439.814575,250.335480 432.340698,259.453674 424.923462,268.616333
	C424.173889,269.542297 424.020905,270.951263 423.328278,272.860260
	C419.254211,272.860260 414.819519,272.913849 410.390717,272.776703
	C409.951447,272.763123 409.548248,271.585083 409.537903,270.352203
	C411.969604,266.908478 414.025635,264.083496 416.008484,261.208008
	C435.623932,232.761658 459.453918,209.511475 491.903564,195.574341
	C519.769470,183.605942 548.066223,177.540970 578.432129,181.701691
	C601.558044,184.870407 624.851807,184.491867 647.323059,177.830475
	C666.566345,172.125977 685.346558,164.793121 704.145569,157.688187
	C712.035889,154.706085 718.160400,148.931671 722.984619,141.935547
	C723.686951,142.595490 724.996582,143.251114 725.001343,143.916016
	C725.082092,155.282211 723.287659,166.266403 718.027832,176.515991
	C709.850037,192.451614 699.745667,206.940735 686.274597,218.893158
	C673.356750,230.354752 658.894836,239.323822 642.961182,246.043549
	C633.017639,250.237045 622.847717,253.343399 612.185059,255.039978
	C606.145813,256.000916 600.252686,257.999420 594.197632,258.700714
	C590.044983,259.181702 585.730225,258.171204 581.481873,257.939941
	C574.282288,257.548065 567.077881,257.245117 559.180725,256.773926
	C557.655151,256.482758 556.824341,256.322449 555.993530,256.162140
z"/>
    <path fill="#03A95B" opacity="1.000000" stroke="none"
          d="
M406.872620,269.990997
	C404.070984,271.297180 401.356506,272.856293 398.449921,273.857880
	C392.041443,276.066162 385.536102,277.993256 378.460938,279.236938
	C386.718140,270.262146 394.983795,261.295105 403.229980,252.310211
	C410.613525,244.265213 418.581421,236.654404 425.097504,227.957443
	C428.469879,223.456329 429.523926,217.092499 431.150635,211.433762
	C435.337128,196.870560 441.092957,183.346405 451.169708,171.560486
	C470.457703,149.000885 495.567505,137.758987 523.851807,132.164581
	C545.381836,127.906120 566.607056,130.813080 587.921875,134.574356
	C605.780212,137.725662 623.817444,139.996552 641.849854,141.981201
	C653.684753,143.283768 665.664246,144.059235 677.556702,143.843338
	C691.121277,143.597092 704.661194,141.987381 718.684021,141.181305
	C719.085999,141.579697 719.015686,141.767014 718.589600,142.044281
	C705.755249,147.121765 693.057800,151.628860 680.841797,157.192917
	C651.900513,170.374863 621.665771,174.015945 590.194641,171.974899
	C574.117981,170.932266 557.843323,171.000198 541.776672,172.180206
	C514.252930,174.201706 488.484467,182.418793 466.386719,199.489899
	C454.966522,208.312286 443.172241,217.299591 434.066284,228.298172
	C423.553131,240.996445 415.815460,255.992615 406.872620,269.990997
z"/>
    <!--Interfruits-->
    <path fill="#2F2F26" opacity="1.000000" stroke="none"
          d="
M834.370605,358.000183
	C834.370605,393.472839 834.370605,428.445435 834.370605,463.711914
	C823.756714,463.711914 813.329773,463.711914 802.584595,463.711914
	C802.584595,406.709412 802.584595,349.679657 802.584595,292.413025
	C813.075806,292.413025 823.472168,292.413025 834.370544,292.413025
	C834.370544,314.275848 834.370544,335.888000 834.370605,358.000183
z"/>
    <path fill="#303027" opacity="1.000000" stroke="none"
          d="
M871.245789,347.204285
	C871.246094,345.417816 871.246094,344.107605 871.246094,342.327850
	C877.920837,342.327850 884.400757,341.809631 890.739563,342.530945
	C894.287048,342.934662 897.658691,345.144012 897.174255,350.134827
	C896.985046,352.084412 898.053406,354.156067 898.558167,356.209625
	C902.690125,353.015076 906.327881,349.258972 910.728577,346.968475
	C927.157166,338.417603 944.016357,336.860565 960.152588,347.335907
	C968.066406,352.473419 972.598694,360.428833 975.255127,369.858185
	C977.747253,378.704407 977.286926,387.518646 977.435120,396.336334
	C977.782166,416.983917 977.546143,437.641266 977.546143,458.294678
	C977.546143,460.087006 977.546082,461.879333 977.546082,463.838470
	C967.584229,463.838470 958.139648,463.838470 948.090515,463.838470
	C948.090515,461.963501 948.090515,460.197327 948.090515,458.431152
	C948.090515,435.779022 948.143494,413.126678 948.043274,390.475006
	C948.024536,386.237671 947.638184,381.964783 946.985962,377.776154
	C946.001526,371.454346 937.678894,364.708038 930.547180,363.647705
	C920.122437,362.097717 912.588562,366.630615 904.846252,371.907318
	C901.898132,373.916565 900.666382,376.435211 900.691895,380.207642
	C900.867493,406.189789 900.784180,432.173645 900.784180,458.156952
	C900.784180,459.946869 900.784241,461.736786 900.784241,463.747192
	C890.776733,463.747192 881.222595,463.747192 871.245483,463.747192
	C871.245483,424.884491 871.245483,386.282501 871.245789,347.204285
z"/>
    <path fill="#2F2F27" opacity="1.000000" stroke="none"
          d="
M1042.900146,386.000061
	C1042.901855,400.987396 1043.200928,415.482880 1042.806519,429.959473
	C1042.516846,440.596771 1051.650391,445.572510 1060.631714,439.914490
	C1065.305176,436.970276 1069.600220,439.022736 1073.062500,445.558044
	C1074.664429,448.581848 1076.166016,451.658813 1077.794678,454.872772
	C1068.330078,463.579590 1056.736816,466.173767 1044.125244,465.885834
	C1032.082764,465.610992 1022.118347,461.421356 1016.821411,450.091278
	C1014.607239,445.355103 1013.251648,439.782562 1013.163818,434.562378
	C1012.777710,411.612061 1012.997253,388.651550 1012.997253,365.756073
	C1007.127319,364.919250 1000.982971,364.043304 995.137695,363.209991
	C995.137695,356.771790 995.137695,351.719543 995.137695,346.402618
	C999.701416,345.581421 1003.859314,344.629089 1008.070923,344.134949
	C1012.004578,343.673431 1014.405701,341.845306 1015.027954,337.925049
	C1016.244202,330.263275 1017.619568,322.617126 1018.507324,314.915894
	C1019.251953,308.456299 1022.682312,305.027008 1029.409546,304.995667
	C1033.713501,304.975616 1038.017700,304.991913 1042.738037,304.991913
	C1042.738037,317.700989 1042.738037,330.108307 1042.738037,343.009216
	C1053.531006,343.009216 1063.923462,343.009216 1074.624023,343.009216
	C1074.624023,350.220123 1074.624023,356.938049 1074.624023,364.158691
	C1064.151245,364.158691 1053.758301,364.158691 1042.900146,364.158691
	C1042.900146,371.600800 1042.900146,378.550446 1042.900146,386.000061
z"/>
    <path fill="#2F2F26" opacity="1.000000" stroke="none"
          d="
M1160.000000,406.845947
	C1146.186157,406.845947 1132.872314,406.845947 1119.469971,406.845947
	C1119.817749,416.140411 1121.774658,424.630737 1127.387207,431.902557
	C1136.569580,443.799408 1154.306030,445.679443 1167.107788,440.366241
	C1171.278931,438.635040 1175.105347,436.060181 1179.297485,434.395294
	C1185.384155,431.978058 1190.059204,431.617523 1193.897339,437.978882
	C1195.573242,440.756378 1197.928711,443.123840 1200.138062,445.880249
	C1190.121338,456.671753 1177.993774,462.822998 1163.612427,464.820343
	C1149.397827,466.794586 1135.171021,466.767792 1122.041382,460.744354
	C1113.559204,456.852966 1106.362427,450.506287 1101.190308,442.244110
	C1092.657471,428.614044 1089.924316,413.765656 1089.901611,397.860046
	C1089.885376,386.588593 1092.957031,376.010559 1097.820679,366.684265
	C1102.438843,357.828400 1110.452881,350.600525 1120.259888,346.306946
	C1135.750732,339.524994 1151.558960,338.218567 1167.697510,343.471954
	C1172.539185,345.048035 1177.464722,346.814331 1181.763550,349.452332
	C1184.635254,351.214661 1186.385742,354.746185 1188.780396,357.355255
	C1195.133911,364.278198 1197.695679,372.823792 1200.178589,381.639648
	C1201.877930,387.673889 1200.841675,393.490448 1200.942749,399.393433
	C1201.036865,404.878571 1198.924561,406.807709 1193.490601,406.829407
	C1182.493896,406.873322 1171.496826,406.844666 1160.000000,406.845947
M1121.998657,380.657928
	C1121.295410,383.308777 1120.592285,385.959625 1119.840698,388.792664
	C1138.460449,388.792664 1156.530029,388.792664 1174.585571,388.792664
	C1175.409668,375.698242 1167.935181,364.451233 1156.178955,362.126648
	C1141.573730,359.238708 1128.279541,363.621857 1121.998657,380.657928
z"/>
    <path fill="#303027" opacity="1.000000" stroke="none"
          d="
M1225.112427,439.000000
	C1225.112427,406.559906 1225.112427,374.619843 1225.112427,341.794556
	C1232.339966,342.213928 1239.070557,342.451935 1245.768066,343.056641
	C1249.182129,343.364929 1251.123901,345.235352 1251.076050,349.167603
	C1251.037109,352.357208 1251.928955,355.558167 1252.638672,360.293060
	C1257.437622,355.708496 1261.271606,352.239746 1264.884399,348.554108
	C1272.588379,340.694519 1292.261719,336.533051 1302.212158,343.936066
	C1301.783325,349.704773 1301.687744,355.486206 1300.791992,361.140869
	C1300.345703,363.957550 1299.093994,367.520569 1296.988525,368.941620
	C1295.084473,370.226776 1291.454224,369.428314 1288.705811,368.909271
	C1274.238525,366.177155 1262.276489,372.073273 1255.848511,385.596191
	C1254.908936,387.572723 1254.660400,390.033691 1254.651733,392.272644
	C1254.566895,414.262299 1254.600464,436.252411 1254.600464,458.242371
	C1254.600464,460.034058 1254.600342,461.825745 1254.600342,463.810913
	C1244.655273,463.810913 1235.210938,463.810913 1225.112427,463.810913
	C1225.112427,455.688263 1225.112427,447.594116 1225.112427,439.000000
z"/>
    <path fill="#303027" opacity="1.000000" stroke="none"
          d="
M1327.364014,455.906677
	C1327.364014,426.772888 1327.318726,398.124786 1327.417603,369.477173
	C1327.430786,365.642456 1326.606812,363.489960 1322.183960,363.726776
	C1319.841675,363.852234 1317.407227,363.145386 1315.084473,362.543579
	C1311.282959,361.558594 1308.860962,359.468506 1309.157227,355.015686
	C1309.407959,351.245605 1309.208862,347.445618 1309.208862,343.183044
	C1315.411987,343.183044 1321.161743,343.183044 1326.428833,343.183044
	C1327.369629,334.905457 1327.461060,326.979431 1329.282959,319.473450
	C1333.869385,300.577545 1344.992676,292.869995 1363.644165,290.175690
	C1371.242798,289.078033 1379.132446,289.994324 1388.298584,289.994324
	C1387.949951,296.124634 1388.682373,302.513489 1386.754639,307.961090
	C1385.947876,310.241150 1379.538574,311.343109 1375.603149,311.544067
	C1367.467285,311.959564 1360.992554,314.393799 1357.917236,322.451385
	C1356.893433,325.134033 1356.316895,328.079529 1356.084473,330.949341
	C1355.777100,334.745575 1356.008911,338.585480 1356.008911,342.946289
	C1366.271729,342.946289 1376.500000,342.946289 1387.151367,342.946289
	C1387.151367,350.193512 1387.151367,356.914429 1387.151367,364.120789
	C1377.238159,364.120789 1367.328369,364.120789 1357.035278,364.120789
	C1357.035278,397.495239 1357.035278,430.397736 1357.035278,463.653870
	C1347.087402,463.653870 1337.524658,463.653870 1327.363892,463.653870
	C1327.363892,461.287506 1327.363892,458.840027 1327.364014,455.906677
z"/>
    <path fill="#2D2D24" opacity="1.000000" stroke="none"
          d="
M1576.772949,427.926331
	C1576.772949,399.486938 1576.772949,371.047577 1576.772949,342.392059
	C1586.790405,342.392059 1596.196533,342.392059 1605.843018,342.392059
	C1605.843018,382.879272 1605.843018,423.134247 1605.843018,463.863770
	C1599.112183,463.863770 1592.288574,464.411102 1585.601929,463.689331
	C1580.320679,463.119263 1580.697998,457.524323 1579.279785,453.746674
	C1578.857056,452.620697 1578.919067,451.312836 1578.764526,450.130890
	C1572.737549,454.107513 1567.315063,458.479675 1561.232178,461.538391
	C1547.303589,468.542145 1526.269775,468.448822 1513.734863,456.793762
	C1509.151855,452.532471 1506.472046,446.182800 1503.087158,440.685333
	C1499.246582,434.447205 1500.178955,427.328461 1500.113770,420.559387
	C1499.870117,395.235901 1499.999512,369.908783 1500.001099,344.583038
	C1500.001099,343.945679 1500.140137,343.308289 1500.242920,342.424316
	C1509.780151,342.424316 1519.186523,342.424316 1529.230835,342.424316
	C1529.230835,344.298889 1529.230835,346.065460 1529.230835,347.832031
	C1529.230957,370.991852 1529.043213,394.154358 1529.369263,417.309570
	C1529.446289,422.785309 1530.094849,428.825439 1532.513306,433.569641
	C1536.781494,441.942413 1545.284424,444.887085 1554.848755,442.759613
	C1562.799683,440.991028 1569.630371,437.233337 1575.080811,430.353882
	C1576.090210,429.542236 1576.431641,428.734283 1576.772949,427.926331
z"/>
    <path fill="#303027" opacity="1.000000" stroke="none"
          d="
M1449.302612,345.221497
	C1457.921387,341.011688 1466.462646,338.632019 1475.808472,340.970306
	C1482.079224,342.539246 1482.933594,343.508026 1482.001587,349.722473
	C1481.318848,354.275360 1480.634521,358.830231 1479.817993,363.360260
	C1478.672241,369.716675 1476.704834,370.950592 1470.244751,369.592072
	C1455.118286,366.411011 1444.971313,370.472595 1437.395630,383.239319
	C1435.882568,385.789001 1435.017578,389.115112 1434.991699,392.093079
	C1434.796265,414.590149 1434.885132,437.089691 1434.885132,459.588440
	C1434.885132,460.884430 1434.885010,462.180420 1434.885010,463.741089
	C1424.948364,463.741089 1415.392456,463.741089 1405.613159,463.741089
	C1405.613159,423.260284 1405.613159,382.996887 1405.613159,341.852112
	C1412.324829,342.216370 1418.877930,342.523529 1425.423462,342.946533
	C1428.995239,343.177307 1430.567383,345.442413 1431.020752,348.799164
	C1431.646606,353.434784 1432.375977,358.056427 1432.945557,361.904114
	C1438.255249,356.483185 1443.641846,350.983734 1449.302612,345.221497
z"/>
    <path fill="#303027" opacity="1.000000" stroke="none"
          d="
M1663.463379,289.090607
	C1666.541138,292.494202 1670.458862,295.522064 1671.537231,299.349792
	C1672.793823,303.810150 1673.085938,309.724854 1671.120850,313.678375
	C1666.135254,323.708099 1658.475342,327.326874 1646.991577,323.874359
	C1640.103760,321.803650 1636.513916,315.790710 1634.471313,310.232849
	C1630.523926,299.491394 1644.833618,285.978760 1656.701416,288.253998
	C1658.792114,288.654816 1660.931152,288.803528 1663.463379,289.090607
z"/>
    <path fill="#313128" opacity="1.000000" stroke="none"
          d="
M1639.281982,421.999878
	C1639.281982,395.234192 1639.281982,368.968506 1639.281982,342.425598
	C1649.186279,342.425598 1658.730591,342.425598 1668.547241,342.425598
	C1668.547241,382.854584 1668.547241,423.065216 1668.547241,463.644196
	C1659.038818,463.644196 1649.482666,463.644196 1639.281982,463.644196
	C1639.281982,450.010651 1639.281982,436.255280 1639.281982,421.999878
z"/>
    <path fill="#2E2E25" opacity="1.000000" stroke="none"
          d="
M1755.195679,464.348328
	C1745.923218,464.747650 1736.891968,465.622162 1728.067261,464.640350
	C1724.173950,464.207214 1720.082153,460.574554 1717.159424,457.400787
	C1710.298462,449.950928 1708.875732,440.523804 1708.940918,430.683441
	C1709.074341,410.524689 1708.980713,390.364410 1708.980591,370.204773
	C1708.980591,368.395508 1708.980469,366.586243 1708.980469,364.170044
	C1705.084961,364.170044 1701.476440,364.234344 1697.871338,364.155273
	C1692.187012,364.030579 1690.312866,362.239136 1690.026978,356.484192
	C1689.862915,353.181580 1689.997437,349.864166 1689.997437,346.425201
	C1696.924316,345.224213 1703.561768,344.073425 1709.556152,343.034149
	C1711.820557,331.304291 1713.990234,320.064880 1716.339478,307.895477
	C1721.212646,304.488403 1724.305542,304.029358 1738.136353,305.385468
	C1738.136353,317.730103 1738.136353,330.129486 1738.136353,343.072693
	C1748.971558,343.072693 1759.364136,343.072693 1770.018066,343.072693
	C1770.018066,350.222565 1770.018066,356.830688 1770.018066,363.958191
	C1759.747070,363.958191 1749.342896,363.958191 1738.632202,363.958191
	C1738.462891,365.706390 1738.234375,366.974457 1738.233032,368.242828
	C1738.211060,388.235840 1738.205811,408.228912 1738.239868,428.221893
	C1738.243042,430.040924 1738.369873,431.894836 1738.734375,433.672028
	C1740.225342,440.940704 1746.597778,444.140289 1753.415161,441.138550
	C1755.018555,440.432495 1756.640991,439.768280 1758.235229,439.042572
	C1761.089722,437.743378 1763.297607,438.395111 1764.955933,441.087311
	C1766.424683,443.471985 1767.953857,445.820618 1769.502808,448.154297
	C1770.894287,450.250946 1772.348877,452.305725 1774.556274,455.513580
	C1768.173096,458.382385 1761.847046,461.225555 1755.195679,464.348328
z"/>
    <path fill="#2F2F26" opacity="1.000000" stroke="none"
          d="
M1838.289062,362.676270
	C1832.295898,363.030151 1826.429077,362.848419 1821.107910,364.463989
	C1814.371704,366.509216 1811.424194,377.308380 1818.009277,382.613861
	C1825.289062,388.478943 1834.209473,390.180664 1842.707275,392.995850
	C1852.796509,396.338287 1862.397583,400.243042 1869.072021,409.317017
	C1878.415771,422.019775 1873.186523,443.451538 1863.001343,452.844635
	C1851.628662,463.332855 1837.890991,466.113861 1822.927368,466.000336
	C1811.031860,465.910034 1800.305054,461.741730 1789.789673,457.241943
	C1787.466553,456.247803 1781.342773,453.815338 1783.922607,448.512207
	C1786.010132,444.220917 1788.557983,439.327118 1792.322510,436.962891
	C1794.916016,435.334106 1800.567139,436.470673 1803.748535,438.295074
	C1811.701904,442.855804 1819.833008,446.067566 1829.000000,445.009521
	C1832.840210,444.566284 1836.703979,442.951172 1840.189087,441.155121
	C1844.651001,438.855743 1845.484619,433.721191 1846.020142,429.600739
	C1846.669556,424.604828 1841.778809,421.924316 1837.960571,420.100586
	C1831.844849,417.179413 1825.258057,415.235016 1818.847290,412.942444
	C1808.586426,409.272980 1797.353149,406.451416 1791.239868,396.744568
	C1787.241211,390.395447 1785.065063,382.536774 1786.237061,374.500244
	C1786.561279,372.276978 1787.089966,370.074890 1787.655151,367.896851
	C1791.131104,354.501953 1800.467285,346.813446 1813.124023,343.137512
	C1832.170288,337.605865 1850.388916,339.561371 1867.155029,350.868652
	C1867.945190,351.401611 1868.869995,351.913910 1869.788208,352.046082
	C1872.979492,352.505493 1872.797729,354.609039 1871.744385,356.539398
	C1869.780151,360.139038 1867.578125,363.628296 1865.231201,366.993469
	C1863.404785,369.612091 1857.469238,369.473633 1853.393433,367.778564
	C1848.633789,365.799103 1843.582520,364.521118 1838.289062,362.676270
z"/>
    <!--Peru-->
    <path fill="#2D2D24" opacity="1.000000" stroke="none"
          d="
M799.514160,646.999756
	C799.514404,623.549622 799.514404,600.599487 799.514404,577.158813
	C801.686340,577.158813 803.313232,577.140381 804.939514,577.161621
	C826.073120,577.437561 847.218384,577.380310 868.336121,578.114197
	C883.256714,578.632751 896.218811,584.510498 907.828918,594.105957
	C913.416016,598.723511 915.776001,605.162292 919.235596,610.798401
	C921.840149,615.041382 921.568237,621.309998 921.757690,626.705688
	C921.965332,632.618286 921.794189,638.659424 920.805969,644.477722
	C917.600647,663.349121 905.904114,675.416199 888.801208,682.820618
	C878.990479,687.067993 868.628906,688.441711 858.046753,688.512512
	C849.409912,688.570312 840.772461,688.524292 831.565552,688.524292
	C831.565552,708.821106 831.565552,728.701538 831.565552,748.788391
	C820.715637,748.788391 810.440369,748.788391 799.513916,748.788391
	C799.513916,714.976929 799.513916,681.238342 799.514160,646.999756
M846.469849,663.514038
	C851.793152,663.355164 857.126038,663.347046 862.437927,663.008728
	C877.272644,662.063660 887.476990,653.172424 889.521912,638.497864
	C891.819702,622.008484 886.844971,606.313843 865.534180,603.259216
	C854.517029,601.679993 843.086975,602.981567 831.747192,602.981567
	C831.747192,622.697205 831.747192,642.902222 831.747192,663.513855
	C836.553345,663.513855 841.020081,663.513855 846.469849,663.514038
z"/>
    <path fill="#2F2F26" opacity="1.000000" stroke="none"
          d="
M932.993652,691.747009
	C933.018982,681.748596 933.732117,672.415527 936.939270,663.246155
	C942.872192,646.283386 953.496887,634.151367 970.851074,628.651367
	C988.294373,623.123108 1005.550232,623.508911 1021.323730,633.423096
	C1027.157471,637.089722 1032.260986,642.642944 1036.265503,648.341919
	C1044.156128,659.571106 1045.513306,672.583313 1044.080566,686.025818
	C1043.608154,690.458740 1041.212891,691.855957 1037.201294,691.851746
	C1014.043396,691.827332 990.885559,691.843628 967.727661,691.846252
	C966.260071,691.846436 964.792419,691.846313 963.337158,691.846313
	C962.746094,720.673889 984.696533,733.691528 1009.157349,725.967407
	C1014.266846,724.354004 1018.941162,721.380066 1023.847839,719.101868
	C1029.010254,716.704834 1033.385498,717.625122 1036.781372,722.366150
	C1037.647339,723.575134 1038.478271,724.828552 1039.483765,725.914795
	C1043.936646,730.725098 1044.066040,730.827209 1038.998169,735.354431
	C1029.844116,743.531738 1019.069824,748.154114 1006.903320,749.856689
	C994.561890,751.583801 982.136902,751.750183 970.474548,747.565613
	C963.530334,745.074036 957.233276,740.186096 951.351379,735.490967
	C945.291504,730.653931 942.646057,723.164001 938.847656,716.538269
	C935.505615,710.708313 935.056946,704.665955 934.236755,698.463318
	C933.959412,696.365662 933.415710,694.303162 932.993652,691.747009
M1015.869141,660.917297
	C1009.849060,648.702515 998.591187,643.876404 984.038757,647.272034
	C972.764954,649.902710 964.120178,661.278564 963.929260,673.679382
	C981.973267,673.679382 1000.016418,673.679382 1018.800232,673.679382
	C1017.822144,669.370239 1016.949158,665.524414 1015.869141,660.917297
z"/>
    <path fill="#2E2E25" opacity="1.000000" stroke="none"
          d="
M1097.958374,718.000000
	C1097.958374,728.471497 1097.958374,738.443054 1097.958374,748.708008
	C1088.124512,748.708008 1078.568848,748.708008 1068.825684,748.708008
	C1068.825684,708.275879 1068.825684,668.013062 1068.825684,626.850769
	C1075.601562,627.227234 1082.193970,627.327942 1088.713623,628.068420
	C1091.945435,628.435547 1094.567749,629.811462 1094.271484,634.422607
	C1094.014648,638.419861 1095.400879,642.522766 1096.168701,647.242249
	C1099.610718,643.139343 1102.411133,639.086365 1105.908569,635.767822
	C1115.856934,626.328369 1127.501343,622.550354 1141.007080,626.724609
	C1144.492432,627.801880 1147.926758,628.605957 1145.266602,634.232483
	C1143.314453,638.361145 1143.615967,643.561340 1142.945801,648.288635
	C1142.093628,654.299927 1139.189575,656.244995 1133.318848,654.694275
	C1118.369629,650.745728 1105.120605,657.054993 1098.864136,671.247925
	C1098.167969,672.827332 1098.004761,674.744873 1097.995972,676.507568
	C1097.927856,690.171448 1097.958374,703.835815 1097.958374,718.000000
z"/>
    <path fill="#2F2F27" opacity="1.000000" stroke="none"
          d="
M1207.347046,600.086426
	C1210.689087,594.267639 1214.384399,589.015991 1217.113647,583.302979
	C1219.628296,578.039001 1222.905762,575.356934 1228.924805,575.557068
	C1237.236572,575.833374 1245.567261,575.533264 1253.889771,575.502869
	C1254.853271,575.499329 1255.817139,575.640930 1257.365356,575.760254
	C1254.711182,578.822205 1252.463867,581.588074 1250.034790,584.183777
	C1243.446777,591.223816 1236.699219,598.116150 1230.182739,605.220947
	C1227.065796,608.619202 1223.676636,610.438477 1218.869995,610.098877
	C1213.336792,609.707947 1207.754639,610.008118 1201.020996,610.008118
	C1203.327393,606.486389 1205.303223,603.469421 1207.347046,600.086426
z"/>
    <path fill="#2D2D24" opacity="1.000000" stroke="none"
          d="
M1192.379517,662.000244
	C1192.515747,677.985352 1191.630737,693.566772 1193.078369,708.928284
	C1194.498413,723.997314 1202.207886,729.723633 1217.907715,727.726074
	C1226.173096,726.674438 1232.163696,721.061035 1238.443848,716.303406
	C1239.621338,715.411255 1239.891357,712.788940 1239.897461,710.962769
	C1239.986328,684.645508 1239.958130,658.327881 1239.958130,632.010315
	C1239.958130,630.553223 1239.958130,629.096130 1239.958130,627.400818
	C1249.805298,627.400818 1259.209961,627.400818 1268.897461,627.400818
	C1268.897461,667.827332 1268.897461,708.075195 1268.897461,748.838440
	C1262.139648,748.838440 1255.077515,749.669800 1248.333374,748.563293
	C1243.352173,747.746033 1242.862671,742.158508 1242.180054,737.710510
	C1242.056885,736.908020 1242.031616,736.090393 1241.884155,734.393799
	C1238.665405,736.955994 1236.006226,739.253845 1233.166992,741.302307
	C1218.111206,752.165466 1202.032959,753.781372 1184.717773,747.162292
	C1175.263184,743.548157 1170.659302,735.784973 1167.285889,727.456421
	C1164.817993,721.363403 1163.506592,714.414307 1163.402222,707.819580
	C1162.980835,681.185059 1163.227295,654.540039 1163.227295,627.528564
	C1172.785156,627.528564 1182.321777,627.528564 1192.379517,627.528564
	C1192.379517,638.933655 1192.379517,650.216919 1192.379517,662.000244
z"/>
    <!--SAC-->
    <path fill="#2E2E25" opacity="1.000000" stroke="none"
          d="
M1771.360718,593.403137
	C1774.230591,596.094910 1774.193481,598.263977 1771.592651,601.095947
	C1768.375122,604.599548 1765.937500,608.807129 1763.001343,612.584839
	C1759.906006,616.566956 1754.708862,617.317993 1750.886475,614.323914
	C1733.503296,600.706909 1714.339233,599.596680 1694.296021,606.676941
	C1681.956665,611.035767 1672.960815,619.701721 1667.658569,631.576294
	C1657.885376,653.462585 1657.830078,675.623047 1668.617920,697.110107
	C1677.783447,715.365845 1693.581909,723.770264 1713.746338,723.703918
	C1725.694702,723.664612 1737.343750,721.746094 1747.118042,713.959473
	C1749.936646,711.713928 1752.079956,708.213806 1756.410889,709.044617
	C1757.947021,709.339355 1759.757446,709.824158 1760.784790,710.868958
	C1764.965088,715.119995 1768.890381,719.621826 1772.997314,724.127319
	C1760.490601,739.176819 1744.639893,747.723572 1725.459839,749.846680
	C1717.931763,750.679932 1710.239502,751.451416 1702.740112,750.828369
	C1687.294312,749.544983 1672.537720,745.289062 1660.181030,735.483154
	C1653.713135,730.350342 1647.230591,724.728088 1642.476807,718.093018
	C1638.140625,712.040833 1636.119629,704.327332 1633.094482,697.339050
	C1628.128296,685.867371 1628.296143,673.665466 1628.105469,661.534607
	C1627.936768,650.801514 1629.761108,640.459045 1633.302734,630.238098
	C1637.290649,618.728882 1643.302002,608.531616 1651.799683,600.072632
	C1661.070068,590.844482 1672.124512,584.009338 1684.746704,580.116516
	C1699.635864,575.524536 1714.974731,574.347351 1730.197144,577.053162
	C1740.084106,578.810730 1749.682251,582.479187 1759.197144,585.885681
	C1762.470337,587.057556 1765.063721,590.080383 1768.045166,592.145630
	C1768.887695,592.729309 1770.004517,592.916931 1771.360718,593.403137
z"/>
    <path fill="#2E2E25" opacity="1.000000" stroke="none"
          d="
M1349.400757,709.107788
	C1355.265747,710.370239 1360.405029,710.923279 1364.987671,715.831970
	C1368.909546,720.032776 1375.736938,722.130127 1381.665039,723.706116
	C1390.562134,726.071289 1399.714355,725.572144 1408.051758,721.067017
	C1414.638062,717.508179 1419.678711,712.327515 1420.221558,704.380310
	C1420.883789,694.684021 1418.555298,686.042419 1408.458618,682.214050
	C1396.945435,677.848572 1384.943237,674.706238 1373.625244,669.917236
	C1366.448120,666.880371 1359.487915,662.549500 1353.613770,657.438843
	C1347.978027,652.535400 1344.886719,645.567017 1342.937622,637.935120
	C1338.163086,619.241699 1346.556519,597.554810 1360.878906,586.398743
	C1381.267090,570.518005 1426.849365,573.041382 1447.117188,592.893982
	C1447.231201,593.005676 1447.284668,593.179321 1447.599365,593.736267
	C1445.192871,598.416077 1442.592407,603.296204 1440.155273,608.256592
	C1436.979736,614.720093 1432.171997,613.787109 1427.388916,611.697693
	C1421.555786,609.149597 1416.082275,605.558533 1410.056152,603.720215
	C1399.281860,600.433472 1388.359009,599.995117 1378.756348,607.430542
	C1369.913818,614.277161 1367.775269,630.788391 1381.051636,637.906677
	C1389.597168,642.488525 1398.994995,645.536133 1408.134155,648.940369
	C1418.615723,652.844666 1429.015381,656.614380 1437.862915,663.943909
	C1445.013184,669.867310 1447.746948,677.558105 1450.248169,686.057922
	C1452.360962,693.237915 1452.152100,700.749207 1450.473389,706.905701
	C1446.541016,721.327148 1439.293701,734.270630 1425.331665,742.308105
	C1414.170532,748.733215 1402.327026,751.675415 1389.735840,750.799683
	C1380.500122,750.157288 1370.784302,749.610168 1362.335571,746.318054
	C1353.358643,742.820190 1345.564087,736.224182 1337.386963,730.780212
	C1335.259155,729.363586 1334.919312,727.165344 1336.735107,724.866516
	C1340.862793,719.640930 1342.013916,712.105286 1349.400757,709.107788
z"/>
    <path fill="#2F2F26" opacity="1.000000" stroke="none"
          d="
M1464.821777,732.783081
	C1470.978149,717.703186 1476.817993,702.869568 1482.652710,688.033997
	C1485.117920,681.765625 1487.606934,675.506104 1490.012085,669.214661
	C1490.823242,667.092712 1491.275391,664.831055 1492.119385,662.724609
	C1499.339844,644.704163 1507.117065,626.885742 1513.665161,608.625732
	C1517.138672,598.939758 1521.583130,589.712036 1525.264893,580.146912
	C1525.776611,578.817627 1527.945923,577.332947 1529.391235,577.287109
	C1537.876343,577.017883 1546.378052,577.292969 1554.866211,577.078735
	C1557.801270,577.004639 1559.179688,577.928833 1560.240112,580.669678
	C1567.034180,598.231628 1574.037720,615.712402 1580.917969,633.241211
	C1586.111572,646.473083 1591.178711,659.754578 1596.381714,672.982666
	C1606.253052,698.079346 1616.181152,723.153564 1626.242554,748.634155
	C1616.589233,748.634155 1607.327148,749.209412 1598.213623,748.298401
	C1595.320068,748.009155 1591.641846,744.260315 1590.359619,741.232056
	C1586.110474,731.197632 1582.713379,720.796387 1579.165649,710.475281
	C1578.245728,707.799194 1577.018921,706.742188 1574.009277,706.764221
	C1553.026001,706.918152 1532.040649,706.911987 1511.057251,706.774353
	C1507.918457,706.753784 1506.459717,707.614990 1505.421265,710.709290
	C1502.145264,720.471252 1498.468872,730.098999 1494.929565,739.772217
	C1492.502319,746.406067 1488.937866,748.955933 1481.917114,748.996277
	C1474.432983,749.039307 1466.948242,749.005920 1459.020996,749.005920
	C1460.929565,743.443726 1462.716431,738.236145 1464.821777,732.783081
M1518.302246,675.888306
	C1517.434814,678.491455 1516.567505,681.094666 1515.627197,683.916870
	C1533.965820,683.916870 1551.711182,683.916870 1569.828003,683.916870
	C1560.621094,658.495117 1551.535156,633.407349 1542.655273,608.888794
	C1534.779053,630.659119 1526.724976,652.921204 1518.302246,675.888306
z"/>
    <!--Simbolo Marca Registrada-->
    <path fill="#07AA5D" opacity="1.000000" stroke="none"
          d="
M730.007446,813.948853
	C715.449158,820.408630 690.787720,811.046204 681.914795,800.612732
	C675.118408,792.621094 669.897034,784.210388 668.525146,774.251343
	C667.345032,765.683838 667.741577,756.885925 671.117493,748.222046
	C674.590881,739.307861 679.656921,732.113281 687.130798,726.472046
	C717.058044,703.883850 760.518127,720.618896 766.636841,757.502930
	C769.142822,772.609314 765.625305,786.736023 754.979919,798.643066
	C748.213928,806.210876 740.063416,811.152954 730.007446,813.948853
M732.448547,799.138062
	C744.383301,793.655273 751.493225,784.413330 753.740051,771.506836
	C756.239319,757.149414 749.306274,742.333313 736.723511,734.830627
	C723.643860,727.031677 707.616943,727.959167 695.469482,737.218018
	C684.105591,745.879639 679.196411,761.333801 682.753967,775.181946
	C687.852539,795.029053 710.186035,808.165283 732.448547,799.138062
z"/>
    <path fill="#09AB5F" opacity="1.000000" stroke="none"
          d="
M726.791382,785.322266
	C724.127563,782.088806 721.427002,779.319702 719.306030,776.161438
	C716.888855,772.561890 713.862122,771.617371 709.126465,772.942444
	C709.126465,775.597534 709.126404,778.512207 709.126404,781.426880
	C709.126404,784.210754 709.126465,786.994690 709.126465,789.978149
	C706.664734,789.978149 704.714905,789.978149 702.364197,789.978149
	C702.364197,774.937073 702.364197,759.880005 702.364197,744.510803
	C708.520630,744.510803 714.951416,744.113892 721.307007,744.634583
	C726.528748,745.062439 730.235474,748.403809 731.536072,753.576965
	C732.835266,758.744629 731.542725,763.484497 727.725952,767.349304
	C726.685303,768.403015 725.442993,769.257690 723.900940,770.526550
	C729.001221,776.720764 734.100586,782.913879 739.593750,789.585266
	C734.135498,790.804382 729.731506,790.944519 726.791382,785.322266
M709.117432,754.670776
	C709.117432,758.270874 709.117432,761.871033 709.117432,765.762207
	C712.242676,765.762207 714.860229,765.951355 717.439270,765.717102
	C721.146973,765.380249 724.029114,763.274841 723.995300,759.533691
	C723.971802,756.931335 722.727478,752.624695 721.075439,752.104126
	C717.465027,750.966370 713.247253,751.745789 709.279907,751.839417
	C709.211487,751.841003 709.172058,753.066772 709.117432,754.670776
z"/>
  </g>
</svg>
