<svg xmlns="http://www.w3.org/2000/svg"
 width="1293.000000pt" height="1293.000000pt" viewBox="0 0 1293.000000 1293.000000"
 preserveAspectRatio="xMidYMid meet">
  <defs>
    <style>
      .hoja {
        fill: #00a859;
      }
      .cuerpo {
        fill: #ed3338;
      }
      .cls-3 {
        fill: #3c4b64;
      }
    </style>
  </defs>
<g transform="translate(0.000000,1293.000000) scale(0.100000,-0.100000)"
fill="#000000" stroke="none">
  <path class="hoja" d="M8850 12919 c-418 -23 -839 -161 -1176 -387 -432 -290 -610 -551
-794 -1166 -28 -93 -54 -174 -57 -180 -7 -11 -732 -805 -807 -884 l-40 -42 44
14 c25 8 131 42 235 75 l190 61 255 396 255 397 142 130 c177 161 378 328 490
408 290 206 705 364 1113 423 226 33 382 39 785 30 215 -5 523 -9 685 -8 429
1 522 20 1050 216 219 81 811 316 820 326 3 3 -17 2 -45 -2 -325 -45 -598 -58
-924 -45 -377 14 -707 53 -1341 159 -487 81 -628 93 -880 79z"/>
  <path  class="hoja" d="M12045 12631 c-139 -145 -241 -203 -546 -309 -79 -27 -227 -81 -329
-120 -560 -211 -957 -260 -1615 -202 -481 43 -718 32 -999 -45 -216 -59 -588
-204 -791 -308 -271 -139 -608 -411 -816 -659 -139 -167 -439 -570 -439 -592
0 -3 51 -6 113 -5 l112 0 242 298 243 298 212 -44 c593 -123 1010 -188 1458
-228 674 -59 928 -60 1260 -4 577 97 1191 454 1553 904 176 218 355 535 396
700 26 105 43 252 39 340 l-3 71 -90 -95z"/>
  <path  class="cuerpo" d="M6180 10229 c-1489 -49 -2917 -791 -3823 -1988 -558 -736 -891 -1570
-1002 -2506 -23 -187 -31 -710 -16 -916 74 -970 416 -1886 991 -2654 847
-1129 2098 -1842 3515 -2001 191 -21 689 -30 885 -15 1802 137 3365 1179 4163
2776 809 1620 696 3523 -300 5042 -184 280 -388 530 -647 788 -413 412 -820
703 -1341 960 -575 283 -1166 447 -1800 500 -225 18 -376 22 -625 14z m-1007
-763 c-10 -13 -70 -89 -134 -168 -290 -359 -551 -733 -744 -1061 l-67 -116
-147 73 c-80 41 -202 106 -271 146 -133 78 -350 216 -350 224 0 6 217 179 305
242 260 189 576 366 879 493 125 53 512 189 539 191 5 0 0 -11 -10 -24z m2587
-36 c425 -139 864 -361 1226 -621 116 -84 317 -245 322 -259 4 -10 -179 -128
-351 -227 -138 -80 -403 -213 -423 -213 -7 0 -51 65 -98 144 -212 354 -464
711 -760 1076 -60 74 -114 141 -120 149 -15 19 25 10 204 -49z m-1720 -885 l0
-885 -42 0 c-114 0 -492 56 -715 105 -146 33 -405 103 -415 113 -9 9 128 229
270 437 162 237 385 528 591 770 105 123 303 345 308 345 1 0 3 -398 3 -885z
m812 728 c316 -359 597 -722 823 -1063 117 -176 218 -341 212 -346 -7 -8 -263
-74 -394 -103 -243 -52 -578 -101 -702 -101 l-54 0 6 503 c4 276 7 663 7 860
0 196 2 357 4 357 2 0 46 -48 98 -107z m-3688 -1218 c177 -121 415 -262 613
-363 95 -48 173 -91 173 -95 0 -5 -25 -65 -56 -135 -207 -467 -368 -1010 -439
-1484 -13 -84 -45 -346 -45 -369 0 -5 -1471 0 -1478 6 -1 1 5 58 14 126 98
770 393 1501 852 2114 96 127 225 284 235 284 4 1 63 -37 131 -84z m6637 -3
c546 -655 905 -1472 1004 -2287 8 -71 17 -142 20 -157 l5 -28 -739 0 -739 0
-6 28 c-2 15 -8 59 -11 97 -47 525 -228 1181 -485 1759 -42 93 -50 121 -39
124 8 3 95 46 194 97 196 100 438 242 610 359 61 41 115 75 120 75 6 0 35 -30
66 -67z m-5118 -731 c385 -123 830 -209 1270 -246 l77 -7 0 -733 c0 -404 -3
-735 -7 -737 -5 -2 -444 -2 -976 0 l-968 4 6 56 c64 563 193 1017 466 1640 13
28 27 52 32 52 4 0 50 -13 100 -29z m3556 -123 c175 -395 295 -765 370 -1143
35 -174 73 -457 63 -465 -4 -3 -441 -3 -972 0 l-965 5 1 28 c0 15 1 346 2 735
l2 709 143 12 c385 33 867 126 1192 230 50 16 93 30 96 30 3 1 34 -63 68 -141z
m-4839 -2300 c0 -2 7 -76 15 -165 55 -611 223 -1250 485 -1836 29 -65 51 -119
49 -121 -2 -2 -77 -40 -166 -85 -201 -100 -413 -223 -607 -353 -125 -83 -150
-97 -163 -86 -9 7 -62 70 -118 141 -538 670 -870 1478 -960 2331 -8 80 -15
152 -15 161 0 13 83 15 740 15 407 0 740 -1 740 -2z m2620 -802 l0 -794 -72
-6 c-301 -27 -585 -70 -833 -126 -139 -31 -411 -105 -493 -134 l-43 -16 -49
105 c-161 342 -310 805 -385 1194 -23 120 -53 339 -70 509 l-6 62 976 0 975 0
0 -794z m2670 769 c0 -9 -7 -82 -15 -163 -47 -446 -161 -901 -337 -1336 -54
-135 -142 -334 -152 -343 -2 -2 -64 14 -137 37 -362 111 -749 187 -1143 225
-88 8 -163 15 -168 15 -4 0 -8 356 -8 790 l0 790 980 0 c873 0 980 -2 980 -15z
m2136 -77 c-74 -881 -436 -1756 -1014 -2455 l-85 -103 -91 63 c-215 149 -467
297 -705 417 -75 37 -121 66 -118 73 3 7 36 84 75 172 251 577 421 1238 457
1775 3 52 8 105 11 118 l4 22 736 0 737 0 -7 -82z m-4809 -2445 c-4 -203 -7
-600 -7 -883 l-1 -515 -40 45 c-280 310 -556 658 -786 990 -128 185 -323 494
-323 513 0 14 334 100 545 141 72 14 200 34 285 45 196 26 213 27 279 29 l54
2 -6 -367z m913 352 c172 -19 409 -58 573 -95 169 -38 397 -102 397 -112 0
-12 -182 -299 -278 -437 -238 -346 -456 -616 -864 -1074 l-37 -42 -1 888 0
887 38 0 c20 0 98 -7 172 -15z m-2610 -607 c207 -350 502 -767 819 -1157 l33
-42 -28 7 c-16 4 -87 26 -159 49 -412 134 -832 346 -1193 602 -97 68 -342 260
-342 268 0 6 248 164 345 220 124 72 404 215 419 215 6 -1 54 -73 106 -162z
m4404 69 c187 -97 350 -192 494 -289 l83 -56 -83 -69 c-344 -287 -771 -540
-1193 -706 -151 -59 -413 -147 -440 -147 -11 0 9 30 57 88 274 324 625 815
818 1145 41 70 77 127 79 127 2 0 86 -42 185 -93z"/>
<path class="hoja" d="M11910 2464 c-214 -38 -376 -118 -511 -253 -483 -482 -259 -1293 406
-1474 65 -18 106 -21 220 -21 122 1 151 4 228 27 311 95 535 324 618 632 17
63 22 108 22 215 0 107 -5 152 -22 215 -84 312 -326 554 -636 636 -77 20 -266
34 -325 23z m274 -244 c213 -54 390 -221 457 -430 30 -93 36 -246 14 -345 -41
-184 -172 -353 -335 -433 -112 -55 -184 -72 -300 -72 -103 0 -187 16 -265 51
-176 77 -322 249 -370 434 -21 80 -21 251 0 330 55 207 215 380 416 449 98 33
99 33 210 35 66 1 120 -5 173 -19z"/>
<path  class="hoja" d="M11740 1565 l0 -405 60 0 60 0 0 160 0 161 67 -3 67 -3 129 -157 130
-158 74 0 c70 0 75 1 62 17 -8 10 -74 89 -147 176 l-132 158 47 32 c123 83
140 287 31 370 -63 48 -106 57 -284 57 l-164 0 0 -405z m345 277 c42 -25 57
-58 52 -120 -7 -99 -54 -133 -189 -140 l-88 -4 0 147 0 148 97 -7 c65 -4 108
-13 128 -24z"/>
</g>x|
</svg>
